<?xml version="1.0" encoding="utf-8"?>
<!-- Generator: Adobe Illustrator 17.0.0, SVG Export Plug-In . SVG Version: 6.00 Build 0)  -->
<!DOCTYPE svg PUBLIC "-//W3C//DTD SVG 1.1//EN" "http://www.w3.org/Graphics/SVG/1.1/DTD/svg11.dtd">
<svg version="1.1" id="Layer_1" xmlns="http://www.w3.org/2000/svg" xmlns:xlink="http://www.w3.org/1999/xlink" x="0px" y="0px"
	 width="405.442px" height="200px" viewBox="0 0 405.442 200" enable-background="new 0 0 405.442 200" xml:space="preserve">
<g>
	<g>
		<g>
			<path fill="#F38B00" d="M94.147,35.72c-5.667-6.233-14.414-9.351-26.241-9.351c-12.27,0-21.794,3.437-28.569,10.312
				c-6.776,6.874-10.164,16.521-10.164,28.938v64.16h18.85V72.01c0-6.046,1.649-10.743,4.949-14.09
				c3.299-3.347,7.936-5.021,13.91-5.021c5.758,0,10.017,1.518,12.776,4.553c2.759,3.035,4.139,7.72,4.139,14.054v58.273h18.85
				V64.584C102.648,51.575,99.813,41.954,94.147,35.72z"/>
			<circle fill="#435363" cx="65.757" cy="94.558" r="15.646"/>
		</g>
		<g>
			<path fill="#F38B00" d="M201.591,35.72c-5.667-6.233-14.414-9.351-26.241-9.351c-12.27,0-21.794,3.437-28.569,10.312
				c-6.776,6.874-10.164,16.521-10.164,28.938v64.16h18.85V72.01c0-6.046,1.649-10.743,4.949-14.09
				c3.299-3.347,7.936-5.021,13.91-5.021c5.758,0,10.017,1.518,12.776,4.553c2.759,3.035,4.139,7.72,4.139,14.054v58.273h18.85
				V64.584C210.091,51.575,207.257,41.954,201.591,35.72z"/>
			<polygon fill="#435363" points="164.459,108.824 156.038,94.237 164.459,79.651 181.302,79.651 189.723,94.237 181.302,108.824 
							"/>
		</g>
		<g>
			<path fill="#FFB700" d="M116.144,113.453v30.249h-12.306v-41.373h15.792c4.809,0,8.537,1.192,11.184,3.577
				c2.95,2.667,4.425,6.052,4.425,10.154c0,4.183-1.829,7.709-5.486,10.578l7.093,17.064h-12.912l-5.971-13.336v-10.639h0.97
				c2.586,0,3.879-1.111,3.879-3.334c0-1.959-1.496-2.94-4.485-2.94H116.144z"/>
		</g>
	</g>
	<path fill="#7D868C" d="M162.01,152.714l4.054-7.794l9.458-1.797c-3.189-4.084-8.492-6.287-13.933-5.253
		c-6.636,1.261-11.306,6.926-11.593,13.393c-46.968,29.096-72.758,8.269-73.853,7.35l-4.549,5.321L67,169.214
		c1.027,0.894,19.169,16.151,51.211,10.062c11.087-2.107,23.849-6.786,38.131-15.486c3.003,2,6.757,2.876,10.582,2.149
		c5.14-0.977,9.107-4.595,10.769-9.182l-9.051,1.72L162.01,152.714z"/>
</g>
<g>
	<path fill="#435363" d="M225.931,40.537v7.019h-2.281v6.337h-7.916V36.969c0-3.275,0.894-5.82,2.681-7.633
		c1.787-1.813,4.299-2.72,7.536-2.72c3.12,0,5.427,0.822,6.922,2.467c1.495,1.645,2.242,4.182,2.242,7.614v17.197h-7.917V37.222
		c0-1.04-0.124-1.761-0.37-2.164c-0.247-0.403-0.689-0.604-1.326-0.604c-1.235,0-1.852,0.923-1.852,2.769v3.315H225.931z"/>
	<path fill="#435363" d="M239.365,34.727h7.292v10.47c0,0.819,0.084,1.388,0.253,1.706c0.169,0.319,0.475,0.478,0.917,0.478
		c0.819,0,1.229-0.728,1.229-2.184v-10.47h7.292v10.47c0,0.819,0.088,1.388,0.263,1.706c0.176,0.319,0.484,0.478,0.926,0.478
		c0.806,0,1.209-0.728,1.209-2.184v-10.47h7.292v11.972c0,2.184-0.734,4.04-2.203,5.567c-1.469,1.527-3.25,2.291-5.342,2.291
		c-2.158,0-4.095-0.91-5.811-2.73c-1.898,1.82-3.809,2.73-5.732,2.73c-2.431,0-4.381-0.884-5.849-2.652
		c-1.157-1.391-1.735-3.399-1.735-6.025V34.727z"/>
	<path fill="#435363" d="M289.416,45.353h-11.055c-0.169-0.559-0.253-1.072-0.253-1.541c0-0.65,0.117-1.287,0.351-1.911h3.705
		c-0.26-1.443-1.072-2.165-2.437-2.165c-0.91,0-1.651,0.387-2.223,1.16c-0.572,0.774-0.858,1.765-0.858,2.974
		c0,1.261,0.276,2.281,0.829,3.061c0.552,0.78,1.277,1.17,2.174,1.17c0.728,0,1.43-0.364,2.106-1.092l4.152,4.992
		c-1.937,1.521-4.088,2.281-6.453,2.281c-2.886,0-5.311-0.968-7.273-2.905c-1.963-1.937-2.944-4.335-2.944-7.195
		c0-2.847,0.991-5.251,2.974-7.214c1.982-1.962,4.416-2.944,7.302-2.944c2.821,0,5.19,0.959,7.107,2.876
		c1.917,1.917,2.876,4.28,2.876,7.088C289.494,44.274,289.468,44.729,289.416,45.353z"/>
	<path fill="#435363" d="M304.625,34.727v7.682c-1.027,0-1.732,0.192-2.116,0.575c-0.383,0.384-0.627,1.141-0.73,2.271
		c-0.339,3.757-1.794,6.409-4.368,7.955c-1.364,0.806-3.302,1.209-5.81,1.209h-1.015v-7.721h0.332c1.17,0,2.005-0.244,2.505-0.731
		c0.501-0.488,0.79-1.342,0.868-2.564c0.104-1.989,0.289-3.386,0.556-4.192c0.266-0.806,0.809-1.605,1.628-2.398
		c1.43-1.391,3.412-2.086,5.947-2.086H304.625z"/>
	<path fill="#435363" d="M316.225,34.044c2.756,0,5.118,0.992,7.088,2.974c1.97,1.982,2.954,4.358,2.954,7.126
		c0,2.808-0.998,5.2-2.993,7.175c-1.995,1.976-4.403,2.964-7.224,2.964c-2.821,0-5.232-0.991-7.234-2.974
		c-2.002-1.982-3.002-4.371-3.002-7.166c0-2.847,1-5.242,3.002-7.185C310.818,35.016,313.288,34.044,316.225,34.044z
		 M316.031,41.239c-0.78,0-1.443,0.283-1.989,0.848s-0.818,1.258-0.818,2.077c0,0.806,0.275,1.495,0.828,2.067
		c0.553,0.572,1.212,0.858,1.979,0.858c0.779,0,1.445-0.286,1.998-0.858c0.553-0.572,0.829-1.261,0.829-2.067
		c0-0.819-0.273-1.511-0.819-2.077S316.823,41.239,316.031,41.239z"/>
	<path fill="#435363" d="M355.982,53.893h-7.293v-10.49c0-0.806-0.084-1.365-0.253-1.677c-0.169-0.312-0.475-0.468-0.917-0.468
		c-0.818,0-1.228,0.722-1.228,2.165v10.47H339v-10.49c0-0.806-0.088-1.365-0.264-1.677c-0.176-0.312-0.484-0.468-0.926-0.468
		c-0.807,0-1.209,0.722-1.209,2.165v10.47h-7.292V41.922c0-2.184,0.733-4.039,2.203-5.567c1.469-1.527,3.249-2.291,5.342-2.291
		c2.158,0,4.095,0.91,5.811,2.73c1.911-1.82,3.821-2.73,5.732-2.73c2.431,0,4.38,0.884,5.85,2.652
		c1.156,1.378,1.735,3.386,1.735,6.025V53.893z"/>
	<path fill="#435363" d="M379.36,45.353h-11.056c-0.169-0.559-0.253-1.072-0.253-1.541c0-0.65,0.116-1.287,0.351-1.911h3.705
		c-0.261-1.443-1.073-2.165-2.438-2.165c-0.91,0-1.651,0.387-2.223,1.16c-0.572,0.774-0.858,1.765-0.858,2.974
		c0,1.261,0.276,2.281,0.829,3.061c0.552,0.78,1.277,1.17,2.174,1.17c0.728,0,1.43-0.364,2.105-1.092l4.153,4.992
		c-1.937,1.521-4.088,2.281-6.454,2.281c-2.886,0-5.31-0.968-7.272-2.905s-2.944-4.335-2.944-7.195c0-2.847,0.991-5.251,2.974-7.214
		c1.982-1.962,4.416-2.944,7.302-2.944c2.82,0,5.189,0.959,7.107,2.876c1.917,1.917,2.876,4.28,2.876,7.088
		C379.438,44.274,379.412,44.729,379.36,45.353z"/>
	<path fill="#435363" d="M225.931,78.785v7.019h-2.281v6.337h-7.916V75.217c0-3.275,0.894-5.82,2.681-7.633
		c1.787-1.813,4.299-2.72,7.536-2.72c3.12,0,5.427,0.822,6.922,2.467c1.495,1.645,2.242,4.182,2.242,7.614v17.197h-7.917V75.471
		c0-1.04-0.124-1.761-0.37-2.164c-0.247-0.403-0.689-0.604-1.326-0.604c-1.235,0-1.852,0.923-1.852,2.769v3.315H225.931z"/>
	<path fill="#435363" d="M246.228,99.336h-7.292V83.114c0-2.977,0.78-5.401,2.34-7.273c0.897-1.079,2.038-1.937,3.422-2.574
		c1.384-0.637,2.804-0.956,4.26-0.956c2.898,0,5.342,0.975,7.331,2.925s2.983,4.342,2.983,7.175c0,2.756-0.988,5.135-2.964,7.136
		c-1.976,2.002-4.315,3.003-7.019,3.003c-0.442,0-1.092-0.046-1.95-0.137v-8.033c0.598,0.481,1.196,0.722,1.793,0.722
		c0.754,0,1.401-0.28,1.94-0.838c0.539-0.559,0.809-1.222,0.809-1.989c0-0.767-0.28-1.42-0.838-1.959
		c-0.559-0.539-1.229-0.809-2.008-0.809c-1.872,0-2.808,1.293-2.808,3.88V99.336z"/>
	<path fill="#435363" d="M269.334,99.336h-7.292V83.114c0-2.977,0.78-5.401,2.34-7.273c0.897-1.079,2.038-1.937,3.422-2.574
		c1.384-0.637,2.804-0.956,4.26-0.956c2.898,0,5.342,0.975,7.331,2.925s2.983,4.342,2.983,7.175c0,2.756-0.988,5.135-2.964,7.136
		c-1.976,2.002-4.315,3.003-7.019,3.003c-0.442,0-1.092-0.046-1.95-0.137v-8.033c0.598,0.481,1.196,0.722,1.793,0.722
		c0.754,0,1.401-0.28,1.94-0.838c0.539-0.559,0.809-1.222,0.809-1.989c0-0.767-0.28-1.42-0.838-1.959
		c-0.559-0.539-1.229-0.809-2.008-0.809c-1.872,0-2.808,1.293-2.808,3.88V99.336z"/>
	<path fill="#435363" d="M292.867,65.527v26.615h-7.292V65.527H292.867z"/>
	<path fill="#435363" d="M304.43,72.702v19.439h-7.292V72.702H304.43z M300.803,64.025c0.988,0,1.843,0.348,2.564,1.043
		c0.721,0.695,1.082,1.518,1.082,2.466c0,1.014-0.342,1.846-1.023,2.496c-0.683,0.65-1.558,0.975-2.623,0.975
		s-1.939-0.325-2.622-0.975c-0.683-0.65-1.023-1.482-1.023-2.496c0-0.949,0.36-1.771,1.082-2.466
		C298.96,64.373,299.814,64.025,300.803,64.025z"/>
	<path fill="#435363" d="M319.521,84.849v7.546c-0.599,0.104-1.145,0.156-1.638,0.156c-2.925,0-5.362-0.962-7.312-2.886
		c-1.949-1.924-2.925-4.335-2.925-7.234c0-2.82,0.985-5.212,2.954-7.175c1.97-1.962,4.364-2.944,7.186-2.944
		c3.146,0,5.625,0.92,7.438,2.759s2.72,4.351,2.72,7.536v9.535h-7.292v-9.008c0-1.026-0.251-1.845-0.751-2.457
		c-0.501-0.611-1.173-0.917-2.018-0.917c-0.768,0-1.431,0.28-1.989,0.838c-0.559,0.559-0.839,1.222-0.839,1.989
		c0,0.806,0.254,1.469,0.761,1.989c0.507,0.52,1.15,0.78,1.931,0.78C318.384,85.356,318.975,85.187,319.521,84.849z"/>
	<path fill="#435363" d="M349.528,92.141h-7.292V81.164c0-1.118-0.462-1.677-1.385-1.677c-0.909,0-1.364,0.559-1.364,1.677v10.978
		h-7.292V81.301c0-2.535,0.838-4.67,2.515-6.405s3.73-2.603,6.161-2.603c2.782,0,5.011,1.008,6.688,3.022
		c1.313,1.573,1.97,3.763,1.97,6.571V92.141z"/>
	<path fill="#435363" d="M365.711,83.192l7.234-0.273c-0.208,2.808-1.255,5.115-3.14,6.922c-1.885,1.807-4.179,2.71-6.883,2.71
		c-2.859,0-5.273-0.995-7.243-2.983s-2.954-4.426-2.954-7.312c0-2.743,0.994-5.089,2.983-7.039c1.988-1.95,4.374-2.925,7.155-2.925
		c2.431,0,4.576,0.767,6.435,2.301c1.858,1.534,3.016,3.49,3.471,5.869l-7.39,0.273c-0.637-0.832-1.442-1.248-2.418-1.248
		c-0.832,0-1.515,0.273-2.047,0.819c-0.533,0.546-0.8,1.235-0.8,2.067c0,0.845,0.283,1.554,0.849,2.125s1.271,0.858,2.115,0.858
		C364.313,85.356,365.191,84.635,365.711,83.192z"/>
	<path fill="#435363" d="M395.231,83.601h-11.056c-0.169-0.559-0.253-1.072-0.253-1.541c0-0.65,0.116-1.287,0.351-1.911h3.705
		c-0.261-1.443-1.073-2.165-2.438-2.165c-0.91,0-1.651,0.387-2.223,1.16c-0.572,0.774-0.858,1.765-0.858,2.974
		c0,1.261,0.276,2.281,0.829,3.061c0.552,0.78,1.277,1.17,2.174,1.17c0.728,0,1.43-0.364,2.105-1.092l4.153,4.992
		c-1.937,1.521-4.088,2.281-6.454,2.281c-2.886,0-5.31-0.968-7.272-2.905s-2.944-4.335-2.944-7.195c0-2.847,0.991-5.251,2.974-7.214
		c1.982-1.962,4.416-2.944,7.302-2.944c2.82,0,5.189,0.959,7.107,2.876c1.917,1.917,2.876,4.28,2.876,7.088
		C395.309,82.522,395.283,82.977,395.231,83.601z"/>
	<path fill="#F38B00" d="M224.196,110.93v19.459h-7.916v-26.615h10.158c3.094,0,5.492,0.767,7.195,2.301
		c1.898,1.716,2.847,3.893,2.847,6.532c0,2.691-1.177,4.959-3.529,6.805l4.562,10.978h-8.306l-3.841-8.579v-6.844h0.624
		c1.664,0,2.496-0.715,2.496-2.145c0-1.26-0.962-1.891-2.886-1.891H224.196z"/>
	<path fill="#F38B00" d="M258.727,121.849h-11.056c-0.169-0.559-0.253-1.072-0.253-1.541c0-0.65,0.117-1.287,0.351-1.911h3.705
		c-0.26-1.443-1.072-2.165-2.437-2.165c-0.91,0-1.651,0.387-2.223,1.16c-0.572,0.774-0.858,1.765-0.858,2.974
		c0,1.261,0.276,2.281,0.829,3.061c0.552,0.78,1.277,1.17,2.174,1.17c0.728,0,1.43-0.364,2.106-1.092l4.153,4.992
		c-1.937,1.521-4.088,2.281-6.454,2.281c-2.886,0-5.311-0.968-7.273-2.905c-1.963-1.937-2.944-4.335-2.944-7.195
		c0-2.847,0.991-5.251,2.974-7.214c1.982-1.962,4.416-2.944,7.302-2.944c2.821,0,5.19,0.959,7.107,2.876
		c1.917,1.917,2.876,4.28,2.876,7.088C258.805,120.77,258.779,121.225,258.727,121.849z"/>
	<path fill="#F38B00" d="M268.612,137.584h-7.292v-16.222c0-2.977,0.78-5.401,2.34-7.273c0.897-1.079,2.038-1.937,3.422-2.574
		c1.384-0.637,2.804-0.956,4.26-0.956c2.898,0,5.342,0.975,7.331,2.925s2.983,4.342,2.983,7.175c0,2.756-0.988,5.135-2.964,7.136
		c-1.976,2.002-4.315,3.003-7.019,3.003c-0.442,0-1.092-0.046-1.95-0.137v-8.033c0.598,0.481,1.196,0.722,1.793,0.722
		c0.754,0,1.401-0.28,1.94-0.838c0.539-0.559,0.809-1.222,0.809-1.989c0-0.767-0.28-1.42-0.838-1.959
		c-0.559-0.539-1.229-0.809-2.008-0.809c-1.872,0-2.808,1.293-2.808,3.88V137.584z"/>
	<path fill="#F38B00" d="M295.655,123.097v7.546c-0.598,0.104-1.144,0.156-1.638,0.156c-2.925,0-5.362-0.962-7.312-2.886
		c-1.95-1.924-2.925-4.335-2.925-7.234c0-2.82,0.984-5.212,2.954-7.175c1.969-1.962,4.364-2.944,7.185-2.944
		c3.146,0,5.625,0.92,7.438,2.759s2.72,4.351,2.72,7.536v9.535h-7.292v-9.008c0-1.026-0.25-1.845-0.751-2.457
		c-0.5-0.611-1.173-0.917-2.018-0.917c-0.768,0-1.43,0.28-1.989,0.838c-0.559,0.559-0.838,1.222-0.838,1.989
		c0,0.806,0.254,1.469,0.761,1.989c0.507,0.52,1.15,0.78,1.93,0.78C294.517,123.604,295.109,123.435,295.655,123.097z"/>
	<path fill="#F38B00" d="M315.621,110.95v19.439h-7.292V110.95H315.621z M311.995,102.273c0.987,0,1.842,0.348,2.563,1.043
		s1.082,1.518,1.082,2.466c0,1.014-0.341,1.846-1.023,2.496c-0.683,0.65-1.557,0.975-2.622,0.975c-1.066,0-1.94-0.325-2.623-0.975
		c-0.683-0.65-1.023-1.482-1.023-2.496c0-0.949,0.36-1.771,1.082-2.466S311.007,102.273,311.995,102.273z"/>
	<path fill="#F38B00" d="M330.576,110.755v7.799c-0.507-0.286-0.968-0.429-1.384-0.429c-1.326,0-1.989,1.014-1.989,3.042v9.223
		h-7.292v-10.626c0-2.808,0.767-5.046,2.301-6.717c1.533-1.67,3.581-2.506,6.142-2.506
		C328.926,110.54,329.667,110.612,330.576,110.755z"/>
</g>
</svg>
