<?xml version="1.0" encoding="utf-8"?>
<!-- Generator: Adobe Illustrator 17.0.0, SVG Export Plug-In . SVG Version: 6.00 Build 0)  -->
<!DOCTYPE svg PUBLIC "-//W3C//DTD SVG 1.1//EN" "http://www.w3.org/Graphics/SVG/1.1/DTD/svg11.dtd">
<svg version="1.1" id="Layer_1" xmlns="http://www.w3.org/2000/svg" xmlns:xlink="http://www.w3.org/1999/xlink" x="0px" y="0px"
	 width="613px" height="405px" viewBox="0 0 613 405" enable-background="new 0 0 613 405" xml:space="preserve">
<g>
	<g>
		<g>
			<path fill-rule="evenodd" clip-rule="evenodd" fill="#FFFFFF" d="M97.233,367.482c-18.513-2.286-37.038-4.573-55.575-6.863
				c-2.711-0.378-4.06-1.045,0.591-1.181c85.889-2.448,171.765-4.899,257.627-7.351c4.398-0.193,8.469-0.051,11.896,0.798
				c13.531,1.956,27.053,3.911,40.566,5.864c5.22,1.051,6.791,1.474-0.537,1.774c-76.494,2.529-153.002,5.055-229.525,7.579
				C113.767,368.582,104.202,368.582,97.233,367.482z"/>
			<path fill-rule="evenodd" clip-rule="evenodd" fill="#F5F6F6" d="M51.126,360.54c17.317,2.105,34.623,4.209,51.92,6.31
				c6.645,1.049,15.765,1.049,23.874,0.592c71.313-2.35,142.613-4.701,213.9-7.055c6.989-0.288,5.487-0.689,0.514-1.689
				c-12.378-1.835-24.763-3.671-37.156-5.508c-3.263-0.809-7.147-0.939-11.338-0.758c-80.371,2.33-160.755,4.658-241.151,6.984
				C47.255,359.547,48.542,360.185,51.126,360.54z"/>
			<path fill-rule="evenodd" clip-rule="evenodd" fill="#EBEBEB" d="M60.594,360.462c16.096,1.922,32.184,3.844,48.263,5.763
				c6.322,0.993,14.991,0.992,22.706,0.558c66.103-2.175,132.195-4.352,198.276-6.531c6.649-0.271,5.218-0.661,0.486-1.61
				c-11.241-1.712-22.488-3.426-33.743-5.14c-3.1-0.77-6.796-0.894-10.779-0.724c-74.879,2.207-149.769,4.412-224.67,6.616
				C56.911,359.518,58.137,360.123,60.594,360.462z"/>
			<path fill-rule="evenodd" clip-rule="evenodd" fill="#D9D9D8" d="M70.068,360.382c14.874,1.738,29.741,3.475,44.601,5.211
				c5.997,0.942,14.221,0.942,21.531,0.53c60.895-2.001,121.781-4.003,182.658-6.006c6.31-0.26,4.955-0.627,0.462-1.526
				c-10.103-1.594-20.212-3.188-30.327-4.784c-2.942-0.73-6.446-0.849-10.228-0.685c-69.388,2.084-138.786,4.167-208.193,6.248
				C66.575,359.484,67.733,360.06,70.068,360.382z"/>
			<path fill-rule="evenodd" clip-rule="evenodd" fill="#C0BFBF" d="M79.536,360.303c13.654,1.553,27.302,3.106,40.944,4.658
				c5.671,0.897,13.45,0.897,20.361,0.508c55.686-1.828,111.365-3.657,167.036-5.487c5.964-0.243,4.685-0.593,0.439-1.447
				c-8.968-1.471-17.942-2.943-26.92-4.416c-2.784-0.691-6.094-0.803-9.669-0.651c-63.897,1.959-127.802,3.918-191.716,5.874
				C76.232,359.456,77.328,359.998,79.536,360.303z"/>
			<path fill-rule="evenodd" clip-rule="evenodd" fill="#8C8C8C" d="M89.003,360.224c12.433,1.371,24.861,2.741,37.286,4.111
				c5.342,0.841,12.675,0.841,19.193,0.474c50.479-1.653,100.953-3.308,151.42-4.963c5.618-0.231,4.41-0.559,0.41-1.362
				c-7.833-1.353-15.67-2.706-23.511-4.06c-2.62-0.65-5.743-0.758-9.117-0.611c-58.402,1.837-116.811,3.672-175.228,5.507
				C85.89,359.422,86.924,359.936,89.003,360.224z"/>
		</g>
		<g>
			<path fill-rule="evenodd" clip-rule="evenodd" d="M132.099,363.703c-11.206-1.185-22.415-2.371-33.628-3.558
				c-1.952-0.271-2.924-0.751,0.423-0.847c52.924-1.712,105.841-3.425,158.751-5.139c3.172-0.135,6.103-0.034,8.566,0.572
				c6.703,1.233,13.402,2.466,20.097,3.698c3.758,0.757,4.892,1.063-0.388,1.283c-45.261,1.48-90.527,2.96-135.798,4.438
				C144.004,364.493,137.116,364.493,132.099,363.703z"/>
			<linearGradient id="SVGID_1_" gradientUnits="userSpaceOnUse" x1="216.5065" y1="350.5507" x2="216.8191" y2="359.9311">
				<stop  offset="0" style="stop-color:#0F0F0F"/>
				<stop  offset="1" style="stop-color:#919191"/>
			</linearGradient>
			<path fill-rule="evenodd" clip-rule="evenodd" fill="url(#SVGID_1_)" d="M139.56,352.512c-0.661,3.333-1.348,6.663-2.06,9.988
				c52.115-1.664,104.225-3.329,156.327-4.994c0.686-3.328,1.347-6.659,1.983-9.994C243.733,349.18,191.65,350.846,139.56,352.512z"
				/>
			<linearGradient id="SVGID_2_" gradientUnits="userSpaceOnUse" x1="142.8387" y1="80.5004" x2="289.5665" y2="349.5847">
				<stop  offset="0" style="stop-color:#858585"/>
				<stop  offset="0.45" style="stop-color:#CDCCCC"/>
				<stop  offset="0.52" style="stop-color:#F1F0F0"/>
				<stop  offset="0.7" style="stop-color:#FDFEFF"/>
				<stop  offset="0.78" style="stop-color:#908F8F"/>
				<stop  offset="1" style="stop-color:#464646"/>
			</linearGradient>
			<path fill-rule="evenodd" clip-rule="evenodd" fill="url(#SVGID_2_)" d="M136.207,73.547
				c20.542,91.9,21.64,187.021,3.294,279.265c52.428-1.667,104.849-3.336,157.264-5.005c17.006-89.01,15.947-180.589-3.176-269.279
				C241.134,76.866,188.674,75.206,136.207,73.547z"/>
			<radialGradient id="SVGID_3_" cx="213.7762" cy="213.2296" r="167.3951" gradientUnits="userSpaceOnUse">
				<stop  offset="0" style="stop-color:#E6E6E5"/>
				<stop  offset="0.33" style="stop-color:#D4D4D4"/>
				<stop  offset="0.67" style="stop-color:#AEA9A3"/>
				<stop  offset="1" style="stop-color:#797979"/>
			</radialGradient>
			<path fill-rule="evenodd" clip-rule="evenodd" fill="url(#SVGID_3_)" d="M136.207,73.547
				c21.284,95.219,21.694,193.895,1.23,289.247c-16.113-1.662-32.232-3.324-48.357-4.988
				c19.049-92.139,18.653-187.263-1.187-279.278C104.004,76.866,120.109,75.206,136.207,73.547z"/>
			<radialGradient id="SVGID_4_" cx="153.1633" cy="173.5849" r="213.4476" gradientUnits="userSpaceOnUse">
				<stop  offset="0" style="stop-color:#FFFFFF"/>
				<stop  offset="0.46" style="stop-color:#E3E3E3"/>
				<stop  offset="0.75" style="stop-color:#B4B1AE"/>
				<stop  offset="1" style="stop-color:#676767"/>
			</radialGradient>
			<path fill-rule="evenodd" clip-rule="evenodd" fill="url(#SVGID_4_)" d="M148.502,348.011
				c16.874-88.171,16.02-178.868-2.56-266.783c27.085,0.93,54.169,1.861,81.251,2.791c17.821,86.112,18.656,174.836,2.506,261.193
				C202.635,346.145,175.569,347.078,148.502,348.011z M234.77,345.036c16.105-86.243,15.27-174.843-2.503-260.842
				c19.633,0.674,39.266,1.349,58.897,2.024c17.233,84.688,18.054,171.858,2.465,256.783
				C274.011,343.679,254.391,344.357,234.77,345.036z"/>
			<linearGradient id="SVGID_5_" gradientUnits="userSpaceOnUse" x1="141.4246" y1="360.9296" x2="142.1229" y2="151.5653">
				<stop  offset="0" style="stop-color:#B4B4B4"/>
				<stop  offset="0.49" style="stop-color:#7B7B7B"/>
				<stop  offset="1" style="stop-color:#6F6F6F"/>
			</linearGradient>
			<path fill-rule="evenodd" clip-rule="evenodd" fill="url(#SVGID_5_)" d="M131.786,74.065
				c21.146,94.953,21.54,193.331,1.182,288.412c1.475,0.173,2.951,0.346,4.426,0.519c20.508-95.413,20.113-194.16-1.185-289.445
				C134.734,73.723,133.26,73.894,131.786,74.065z"/>
			<linearGradient id="SVGID_6_" gradientUnits="userSpaceOnUse" x1="222.2498" y1="145.6391" x2="229.3463" y2="276.9208">
				<stop  offset="0" style="stop-color:#FFFFFF"/>
				<stop  offset="0.77" style="stop-color:#D7D6D6"/>
				<stop  offset="1" style="stop-color:#6B6C6C"/>
			</linearGradient>
			<path fill-rule="evenodd" clip-rule="evenodd" fill="url(#SVGID_6_)" d="M224.977,280.491c0-0.002,0-0.004,0.001-0.006
				c-1.178,0-2.355,0-3.533,0c0.283-3.202,0.543-6.406,0.78-9.611c1.178,0,2.355,0,3.533,0c2.848-38.471,2.398-77.126-1.351-115.538
				c-1.008,0-2.017,0-3.025,0c-0.312-3.2-0.647-6.399-1.006-9.595c1.849,0,3.698,0,5.547,0
				c10.194,45.225,9.874,90.301,1.575,134.751C226.659,280.491,225.818,280.491,224.977,280.491z"/>
			<linearGradient id="SVGID_7_" gradientUnits="userSpaceOnUse" x1="230.9574" y1="147.1727" x2="232.4773" y2="278.8974">
				<stop  offset="0" style="stop-color:#FFFFFF"/>
				<stop  offset="0.61" style="stop-color:#FDFEFF"/>
				<stop  offset="1" style="stop-color:#B4B4B4"/>
			</linearGradient>
			<path fill-rule="evenodd" clip-rule="evenodd" fill="url(#SVGID_7_)" d="M224.914,145.74c10.326,45.81,10.25,90.87,1.576,134.745
				c1.68,0,3.36,0,5.04,0c8.47-44.995,8.619-90.156-1.576-134.745C228.274,145.74,226.594,145.74,224.914,145.74z"/>
			<radialGradient id="SVGID_8_" cx="240.8341" cy="203.4875" r="75.3215" gradientUnits="userSpaceOnUse">
				<stop  offset="0" style="stop-color:#FFFFFF"/>
				<stop  offset="0.41" style="stop-color:#FFFFFF"/>
				<stop  offset="1" style="stop-color:#5E5F5F"/>
			</radialGradient>
			<path fill-rule="evenodd" clip-rule="evenodd" fill="url(#SVGID_8_)" d="M225.924,145.74c10.326,45.81,10.25,90.87,1.576,134.745
				c1.68,0,3.36,0,5.04,0c8.464-44.995,8.619-90.156-1.576-134.745C229.284,145.74,227.604,145.74,225.924,145.74z"/>
			<radialGradient id="SVGID_9_" cx="122.0363" cy="272.3285" r="240.2013" gradientUnits="userSpaceOnUse">
				<stop  offset="0" style="stop-color:#FFFFFF"/>
				<stop  offset="0.41" style="stop-color:#E3E3E3"/>
				<stop  offset="0.48" style="stop-color:#ACACAC"/>
				<stop  offset="1" style="stop-color:#181818"/>
			</radialGradient>
			<path fill-rule="evenodd" clip-rule="evenodd" fill="url(#SVGID_9_)" d="M135.211,73.609
				c20.506,91.78,21.62,186.769,3.34,278.897c1.177,0.002,2.354,0.004,3.532,0.006c18.278-92.128,17.164-187.118-3.344-278.897
				C137.563,73.613,136.387,73.611,135.211,73.609z"/>
			<linearGradient id="SVGID_10_" gradientUnits="userSpaceOnUse" x1="293.5982" y1="341.1457" x2="297.8317" y2="86.5645">
				<stop  offset="0" style="stop-color:#242424"/>
				<stop  offset="0.49" style="stop-color:#7B7B7B"/>
				<stop  offset="1" style="stop-color:#FFFFFF"/>
			</linearGradient>
			<path fill-rule="evenodd" clip-rule="evenodd" fill="url(#SVGID_10_)" d="M291.218,86.478
				c17.15,84.454,17.982,171.37,2.496,256.063c-0.867,0.153-1.734,0.306-2.601,0.459c15.602-84.991,14.767-172.23-2.505-256.98
				C289.478,86.172,290.348,86.325,291.218,86.478z"/>
			<linearGradient id="SVGID_11_" gradientUnits="userSpaceOnUse" x1="234.415" y1="344.0675" x2="232.6468" y2="120.0775">
				<stop  offset="0" style="stop-color:#DCDBDB"/>
				<stop  offset="0.49" style="stop-color:#7B7B7B"/>
				<stop  offset="1" style="stop-color:#9E9E9E"/>
			</linearGradient>
			<path fill-rule="evenodd" clip-rule="evenodd" fill="url(#SVGID_11_)" d="M227.186,83.99
				c17.848,86.229,18.666,175.076,2.452,261.544c-0.87,0.157-1.741,0.314-2.611,0.47c16.335-86.773,15.515-175.952-2.461-262.484
				C225.439,83.677,226.313,83.834,227.186,83.99z"/>
			<linearGradient id="SVGID_12_" gradientUnits="userSpaceOnUse" x1="248.5267" y1="147.6693" x2="255.6233" y2="275.9948">
				<stop  offset="0" style="stop-color:#FFFFFF"/>
				<stop  offset="0.77" style="stop-color:#D7D6D6"/>
				<stop  offset="1" style="stop-color:#6B6C6C"/>
			</linearGradient>
			<path fill-rule="evenodd" clip-rule="evenodd" fill="url(#SVGID_12_)" d="M251.285,279.478L251.285,279.478
				c-1.178,0-2.355,0-3.533,0c0.272-3.132,0.522-6.265,0.751-9.4c1.178,0,2.355,0,3.533,0c2.739-37.604,2.327-75.381-1.235-112.933
				c-1.008,0-2.017,0-3.025,0c-0.297-3.128-0.615-6.255-0.956-9.38c1.847,0,3.694,0,5.542,0
				c9.951,44.213,9.591,88.262,1.441,131.714C252.963,279.478,252.124,279.478,251.285,279.478z"/>
			<radialGradient id="SVGID_13_" cx="267.0223" cy="204.2124" r="74.1472" gradientUnits="userSpaceOnUse">
				<stop  offset="0" style="stop-color:#FFFFFF"/>
				<stop  offset="0.41" style="stop-color:#FFFFFF"/>
				<stop  offset="1" style="stop-color:#5E5F5F"/>
			</radialGradient>
			<path fill-rule="evenodd" clip-rule="evenodd" fill="url(#SVGID_13_)" d="M252.361,147.764
				c10.081,44.781,9.969,88.825,1.441,131.714c1.682,0,3.363,0,5.045,0c8.309-43.986,8.504-88.126-1.441-131.714
				C255.725,147.764,254.043,147.764,252.361,147.764z"/>
			<linearGradient id="SVGID_14_" gradientUnits="userSpaceOnUse" x1="185.4057" y1="180.7509" x2="203.7377" y2="236.7656">
				<stop  offset="0" style="stop-color:#B4B4B4"/>
				<stop  offset="0.23" style="stop-color:#DEDBDB"/>
				<stop  offset="0.31" style="stop-color:#FFFFFF"/>
				<stop  offset="0.55" style="stop-color:#FFFFFF"/>
				<stop  offset="0.65" style="stop-color:#ACACAC"/>
				<stop  offset="1" style="stop-color:#616262"/>
			</linearGradient>
			<path fill-rule="evenodd" clip-rule="evenodd" fill="url(#SVGID_14_)" d="M173.042,233.368
				c0.325-17.727-0.048-35.464-1.118-53.169c14.309,0.042,28.617,0.084,42.926,0.126c1.057,17.537,1.429,35.105,1.117,52.664
				C201.659,233.115,187.35,233.242,173.042,233.368z"/>
			<linearGradient id="SVGID_15_" gradientUnits="userSpaceOnUse" x1="183.1737" y1="202.0402" x2="209.0587" y2="230.4632">
				<stop  offset="0" style="stop-color:#464646"/>
				<stop  offset="1" style="stop-color:#AEAEAE"/>
			</linearGradient>
			<path fill-rule="evenodd" clip-rule="evenodd" fill="url(#SVGID_15_)" d="M177.133,229.314c0.119-9.614,0.032-19.229-0.26-28.84
				c11.956,0.042,23.912,0.084,35.868,0.126c0.285,9.441,0.372,18.886,0.26,28.329C201.046,229.058,189.09,229.186,177.133,229.314z
				"/>
			<linearGradient id="SVGID_16_" gradientUnits="userSpaceOnUse" x1="213.3171" y1="150.538" x2="220.3724" y2="150.538">
				<stop  offset="0" style="stop-color:#EDEDED"/>
				<stop  offset="1" style="stop-color:#FFFFFF"/>
			</linearGradient>
			<path fill-rule="evenodd" clip-rule="evenodd" fill="url(#SVGID_16_)" d="M213.317,145.74c0.36,3.195,0.697,6.391,1.011,9.59
				c2.015,0.002,4.03,0.004,6.045,0.006c-0.312-3.196-0.647-6.391-1.004-9.584C217.351,145.748,215.334,145.744,213.317,145.74z"/>
			<path fill-rule="evenodd" clip-rule="evenodd" fill="#CFCFCF" d="M219.875,145.74c0.358,3.197,0.693,6.395,1.006,9.595
				c0.167,0,0.335,0,0.502,0c-0.312-3.2-0.647-6.399-1.006-9.595C220.21,145.74,220.042,145.74,219.875,145.74z"/>
			<linearGradient id="SVGID_17_" gradientUnits="userSpaceOnUse" x1="214.3914" y1="275.6825" x2="221.2204" y2="275.6825">
				<stop  offset="0" style="stop-color:#DBDCD9"/>
				<stop  offset="1" style="stop-color:#B9B9B9"/>
			</linearGradient>
			<path fill-rule="evenodd" clip-rule="evenodd" fill="url(#SVGID_17_)" d="M215.171,270.874c-0.237,3.203-0.497,6.405-0.78,9.605
				c2.016,0.004,4.032,0.008,6.048,0.012c0.283-3.202,0.543-6.406,0.781-9.611C219.204,270.878,217.188,270.876,215.171,270.874z"/>
			<path fill-rule="evenodd" clip-rule="evenodd" fill="#404040" d="M222.27,262.839c-0.199,3.207-0.421,6.413-0.666,9.618
				c0.169,0,0.338,0,0.508,0c0.245-3.205,0.467-6.411,0.666-9.618C222.609,262.839,222.439,262.839,222.27,262.839z"/>
			<linearGradient id="SVGID_18_" gradientUnits="userSpaceOnUse" x1="181.0837" y1="204.6878" x2="186.6852" y2="204.6714">
				<stop  offset="0" style="stop-color:#292929"/>
				<stop  offset="0.29" style="stop-color:#B0B1B1"/>
				<stop  offset="0.36" style="stop-color:#EBEBEB"/>
				<stop  offset="0.65" style="stop-color:#D7D6D6"/>
				<stop  offset="0.8" style="stop-color:#818181"/>
				<stop  offset="0.92" style="stop-color:#5D5D5D"/>
				<stop  offset="1" style="stop-color:#FFFFFF"/>
			</linearGradient>
			<path fill-rule="evenodd" clip-rule="evenodd" fill="url(#SVGID_18_)" d="M181.018,200.521c0.084,2.772,0.151,5.545,0.201,8.318
				c1.849,0,3.698,0,5.548,0c-0.05-2.773-0.117-5.546-0.201-8.318C184.717,200.521,182.868,200.521,181.018,200.521z"/>
			<linearGradient id="SVGID_19_" gradientUnits="userSpaceOnUse" x1="198.2915" y1="204.6878" x2="203.893" y2="204.6714">
				<stop  offset="0" style="stop-color:#292929"/>
				<stop  offset="0.29" style="stop-color:#B0B1B1"/>
				<stop  offset="0.36" style="stop-color:#EBEBEB"/>
				<stop  offset="0.65" style="stop-color:#D7D6D6"/>
				<stop  offset="0.8" style="stop-color:#818181"/>
				<stop  offset="0.92" style="stop-color:#5D5D5D"/>
				<stop  offset="1" style="stop-color:#FFFFFF"/>
			</linearGradient>
			<path fill-rule="evenodd" clip-rule="evenodd" fill="url(#SVGID_19_)" d="M198.22,200.521c0.084,2.772,0.151,5.545,0.201,8.318
				c1.849,0,3.698,0,5.547,0c-0.05-2.773-0.117-5.546-0.201-8.318C201.918,200.521,200.069,200.521,198.22,200.521z"/>
		</g>
	</g>
</g>
<g>
	<g>
		<g>
			<path fill-rule="evenodd" clip-rule="evenodd" fill="#FFFFFF" d="M384.075,353.907c-14.308,1.762-28.606,3.524-42.895,5.284
				c-2.095,0.288-3.161,0.801,0.39,0.904c65.558,1.883,131.128,3.764,196.708,5.644c3.358,0.145,6.475,0.039,9.118-0.609
				c10.409-1.5,20.824-3.001,31.247-4.503c4.04-0.805,5.264-1.134-0.327-1.364c-58.363-1.944-116.716-3.89-175.056-5.837
				C396.793,353.059,389.476,353.059,384.075,353.907z"/>
			<path fill-rule="evenodd" clip-rule="evenodd" fill="#FAFAFA" d="M346.004,359.233c13.66-1.667,27.329-3.335,41.007-5.004
				c5.231-0.821,12.32-0.821,18.59-0.464c55.695,1.857,111.4,3.713,167.116,5.568c5.416,0.226,4.229,0.54,0.316,1.322
				c-9.84,1.439-19.673,2.878-29.5,4.316c-2.562,0.632-5.583,0.735-8.836,0.593c-62.782-1.818-125.553-3.637-188.315-5.457
				C342.944,360.007,343.976,359.509,346.004,359.233z"/>
			<path fill-rule="evenodd" clip-rule="evenodd" fill="#F3F3F3" d="M350.826,359.272c13.032-1.573,26.072-3.146,39.119-4.72
				c5.064-0.794,11.922-0.794,17.991-0.445c53.049,1.766,106.107,3.531,159.175,5.295c5.246,0.218,4.096,0.525,0.307,1.28
				c-9.256,1.378-18.506,2.755-27.75,4.132c-2.481,0.609-5.402,0.712-8.551,0.57c-59.983-1.753-119.957-3.507-179.921-5.262
				C347.867,360.023,348.863,359.544,350.826,359.272z"/>
			<path fill-rule="evenodd" clip-rule="evenodd" fill="#EBEBEB" d="M355.65,359.314c12.404-1.478,24.815-2.957,37.232-4.436
				c4.894-0.767,11.525-0.767,17.392-0.433c50.404,1.678,100.817,3.355,151.239,5.031c5.071,0.207,3.959,0.506,0.296,1.234
				c-8.673,1.317-17.341,2.633-26.004,3.948c-2.399,0.589-5.225,0.685-8.269,0.551c-57.185-1.69-114.361-3.382-171.528-5.074
				C352.79,360.038,353.754,359.575,355.65,359.314z"/>
			<path fill-rule="evenodd" clip-rule="evenodd" fill="#E0E1E0" d="M360.476,359.352c11.773-1.384,23.552-2.768,35.337-4.152
				c4.728-0.74,11.132-0.74,16.797-0.418c47.76,1.588,95.527,3.175,143.302,4.762c4.892,0.203,3.821,0.487,0.286,1.192
				c-8.09,1.255-16.176,2.51-24.257,3.764c-2.318,0.57-5.045,0.662-7.988,0.532c-54.387-1.628-108.765-3.257-163.135-4.887
				C357.709,360.053,358.641,359.605,360.476,359.352z"/>
			<path fill-rule="evenodd" clip-rule="evenodd" fill="#D4D4D4" d="M365.299,359.394c11.145-1.289,22.295-2.579,33.45-3.869
				c4.561-0.717,10.738-0.718,16.202-0.403c45.112,1.497,90.231,2.994,135.357,4.49c4.722,0.195,3.688,0.472,0.277,1.153
				c-7.507,1.193-15.009,2.385-22.507,3.577c-2.233,0.547-4.867,0.639-7.702,0.513c-51.59-1.565-103.172-3.132-154.747-4.699
				C362.634,360.072,363.533,359.64,365.299,359.394z"/>
			<path fill-rule="evenodd" clip-rule="evenodd" fill="#C0BFBF" d="M370.122,359.437c10.517-1.196,21.038-2.392,31.563-3.588
				c4.391-0.687,10.341-0.687,15.603-0.387c42.467,1.408,84.94,2.815,127.419,4.221c4.548,0.188,3.551,0.456,0.267,1.111
				c-6.924,1.131-13.844,2.262-20.76,3.393c-2.151,0.528-4.687,0.613-7.42,0.494c-48.791-1.502-97.576-3.004-146.353-4.508
				C367.557,360.088,368.42,359.67,370.122,359.437z"/>
			<path fill-rule="evenodd" clip-rule="evenodd" fill="#A1A1A0" d="M374.949,359.475c9.887-1.101,19.779-2.203,29.673-3.305
				c4.222-0.66,9.944-0.66,15.004-0.372c39.822,1.318,79.649,2.636,119.481,3.953c4.374,0.184,3.414,0.437,0.257,1.069
				c-6.341,1.07-12.679,2.14-19.013,3.209c-2.07,0.505-4.51,0.59-7.134,0.475c-45.993-1.439-91.98-2.879-137.961-4.32
				C372.48,360.103,373.311,359.701,374.949,359.475z"/>
			<path fill-rule="evenodd" clip-rule="evenodd" fill="#6F6F6F" d="M379.772,359.517c9.259-1.007,18.522-2.014,27.787-3.021
				c4.055-0.637,9.546-0.636,14.409-0.36c37.174,1.23,74.353,2.459,111.536,3.688c4.203,0.172,3.28,0.418,0.247,1.023
				c-5.757,1.008-11.512,2.015-17.263,3.022c-1.988,0.49-4.328,0.571-6.852,0.459c-43.195-1.377-86.384-2.754-129.568-4.132
				C377.399,360.119,378.201,359.732,379.772,359.517z"/>
		</g>
		<g>
			<path fill-rule="evenodd" clip-rule="evenodd" d="M500.866,362.179c8.626-0.912,17.255-1.823,25.887-2.736
				c1.506-0.211,2.273-0.578-0.283-0.651c-40.384-1.316-80.763-2.633-121.137-3.95c-2.413-0.103-4.659-0.026-6.575,0.441
				c-5.185,0.947-10.368,1.895-15.548,2.841c-2.909,0.579-3.791,0.817,0.233,0.981c34.535,1.138,69.073,2.276,103.616,3.414
				C491.721,362.788,496.989,362.788,500.866,362.179z"/>
			
				<linearGradient id="SVGID_20_" gradientUnits="userSpaceOnUse" x1="544.4276" y1="352.0723" x2="544.6675" y2="359.2704" gradientTransform="matrix(-1 0 0 1 981.1797 0)">
				<stop  offset="0" style="stop-color:#0F0F0F"/>
				<stop  offset="1" style="stop-color:#919191"/>
			</linearGradient>
			<path fill-rule="evenodd" clip-rule="evenodd" fill="url(#SVGID_20_)" d="M495.713,353.576c0.341,2.561,0.702,5.119,1.083,7.676
				c-39.769-1.278-79.533-2.557-119.292-3.836c-0.361-2.558-0.702-5.119-1.023-7.682
				C416.22,351.015,455.964,352.296,495.713,353.576z"/>
			
				<linearGradient id="SVGID_21_" gradientUnits="userSpaceOnUse" x1="473.7029" y1="153.4339" x2="585.8089" y2="359.0262" gradientTransform="matrix(-1 0 0 1 981.1797 0)">
				<stop  offset="0" style="stop-color:#858585"/>
				<stop  offset="0.45" style="stop-color:#CDCCCC"/>
				<stop  offset="0.52" style="stop-color:#F1F0F0"/>
				<stop  offset="0.7" style="stop-color:#FDFEFF"/>
				<stop  offset="0.78" style="stop-color:#908F8F"/>
				<stop  offset="1" style="stop-color:#464646"/>
			</linearGradient>
			<path fill-rule="evenodd" clip-rule="evenodd" fill="url(#SVGID_21_)" d="M497.473,209.34
				c-7.566,47.839-8.144,96.502-1.733,144.467c-40.005-1.282-80.006-2.564-120.001-3.846c-5.715-45.437-5.168-91.464,1.641-136.788
				C417.406,211.894,457.437,210.617,497.473,209.34z"/>
			
				<radialGradient id="SVGID_22_" cx="530.9677" cy="247.124" r="125.8531" gradientTransform="matrix(-1 0 0 1 981.1797 0)" gradientUnits="userSpaceOnUse">
				<stop  offset="0" style="stop-color:#E6E6E5"/>
				<stop  offset="0.33" style="stop-color:#D4D4D4"/>
				<stop  offset="0.67" style="stop-color:#AEA9A3"/>
				<stop  offset="1" style="stop-color:#797979"/>
			</radialGradient>
			<path fill-rule="evenodd" clip-rule="evenodd" fill="url(#SVGID_22_)" d="M497.473,209.34
				c-7.97,50.393-8.185,101.7-0.647,152.142c12.403-1.278,24.811-2.557,37.224-3.836c-6.784-47.926-6.579-96.591,0.614-144.473
				C522.262,211.894,509.865,210.617,497.473,209.34z"/>
			
				<radialGradient id="SVGID_23_" cx="495.5844" cy="216.8083" r="159.9898" gradientTransform="matrix(-1 0 0 1 981.1797 0)" gradientUnits="userSpaceOnUse">
				<stop  offset="0" style="stop-color:#FFFFFF"/>
				<stop  offset="0.46" style="stop-color:#E3E3E3"/>
				<stop  offset="0.75" style="stop-color:#B4B1AE"/>
				<stop  offset="1" style="stop-color:#676767"/>
			</radialGradient>
			<path fill-rule="evenodd" clip-rule="evenodd" fill="url(#SVGID_23_)" d="M491.652,352.038
				c-6.072-46.7-5.524-94.043,1.643-140.627c-37.964,1.318-75.923,2.637-113.876,3.957c-6.417,44.045-6.927,88.733-1.529,132.88
				C415.806,349.511,453.727,350.775,491.652,352.038z"/>
			
				<radialGradient id="SVGID_24_" cx="474.0299" cy="275.8247" r="137.6497" gradientTransform="matrix(-1 0 0 1 981.1797 0)" gradientUnits="userSpaceOnUse">
				<stop  offset="0" style="stop-color:#FFFFFF"/>
				<stop  offset="0.41" style="stop-color:#E3E3E3"/>
				<stop  offset="0.48" style="stop-color:#ACACAC"/>
				<stop  offset="1" style="stop-color:#181818"/>
			</radialGradient>
			<path fill-rule="evenodd" clip-rule="evenodd" fill="url(#SVGID_24_)" d="M498.265,209.229
				c-7.571,47.798-8.164,96.42-1.781,144.347c-0.9,0-1.8,0-2.699,0c-6.383-47.927-5.789-96.549,1.781-144.347
				C496.465,209.229,497.365,209.229,498.265,209.229z"/>
			<path fill-rule="evenodd" clip-rule="evenodd" fill="#FFFFFF" d="M490.478,232.769c0.7-6.365,1.523-12.72,2.469-19.061
				c-37.958,1.32-75.911,2.641-113.858,3.963c-0.819,5.81-1.535,11.631-2.149,17.459
				C414.785,234.343,452.63,233.556,490.478,232.769z"/>
			<path fill-rule="evenodd" clip-rule="evenodd" fill="#8F8F8F" d="M490.606,231.616c0.715-6.364,1.553-12.717,2.513-19.056
				c-37.961,1.32-75.917,2.641-113.867,3.962c-0.832,5.808-1.562,11.628-2.189,17.456
				C414.909,233.19,452.757,232.403,490.606,231.616z"/>
			
				<radialGradient id="SVGID_25_" cx="495.3905" cy="216.7868" r="160.6309" gradientTransform="matrix(-1 0 0 1 981.1797 0)" gradientUnits="userSpaceOnUse">
				<stop  offset="0" style="stop-color:#FFFFFF"/>
				<stop  offset="0.31" style="stop-color:#E3E3E3"/>
				<stop  offset="0.75" style="stop-color:#B4B1AE"/>
				<stop  offset="1" style="stop-color:#676767"/>
			</radialGradient>
			<path fill-rule="evenodd" clip-rule="evenodd" fill="url(#SVGID_25_)" d="M490.738,230.459c0.73-6.361,1.582-12.712,2.557-19.048
				c-37.964,1.318-75.923,2.637-113.876,3.957c-0.846,5.807-1.589,11.625-2.23,17.452
				C415.037,232.032,452.886,231.245,490.738,230.459z"/>
			<g>
				<path fill-rule="evenodd" clip-rule="evenodd" fill="#8C8C8C" d="M426.581,216.245c-3.148,0-6.148,3.024-6.631,6.751
					c-0.486,3.731,1.725,6.764,4.874,6.763c3.151,0,6.057-3.033,6.543-6.763C431.851,219.269,429.731,216.245,426.581,216.245z"/>
				
					<linearGradient id="SVGID_26_" gradientUnits="userSpaceOnUse" x1="556.3748" y1="216.958" x2="556.3748" y2="229.1054" gradientTransform="matrix(-1 0 0 1 981.1797 0)">
					<stop  offset="0" style="stop-color:#FFFFFF"/>
					<stop  offset="0.06" style="stop-color:#D7D6D6"/>
					<stop  offset="0.2" style="stop-color:#FFFFFF"/>
					<stop  offset="0.49" style="stop-color:#FFFFFF"/>
					<stop  offset="0.61" style="stop-color:#CDCCCC"/>
					<stop  offset="0.86" style="stop-color:#878787"/>
					<stop  offset="1" style="stop-color:#9E9E9E"/>
				</linearGradient>
				<path fill-rule="evenodd" clip-rule="evenodd" fill="url(#SVGID_26_)" d="M431.286,222.992c0.433-3.332-1.461-6.034-4.276-6.034
					c-0.027,0-2.738,0-2.765,0c-2.818,0-5.491,2.702-5.924,6.034c-0.434,3.332,1.536,6.041,4.354,6.041c0.027,0,2.737,0,2.765,0
					C428.256,229.033,430.853,226.323,431.286,222.992z"/>
				
					<linearGradient id="SVGID_27_" gradientUnits="userSpaceOnUse" x1="556.8246" y1="216.873" x2="558.6542" y2="229.0707" gradientTransform="matrix(-1 0 0 1 981.1797 0)">
					<stop  offset="0" style="stop-color:#FFFFFF"/>
					<stop  offset="1" style="stop-color:#B9B9B9"/>
				</linearGradient>
				<path fill-rule="evenodd" clip-rule="evenodd" fill="url(#SVGID_27_)" d="M424.256,216.966c-2.814,0-5.487,2.698-5.92,6.034
					c-0.434,3.331,1.536,6.041,4.35,6.041c2.82,0,5.417-2.709,5.85-6.041C428.969,219.664,427.075,216.966,424.256,216.966z"/>
				
					<linearGradient id="SVGID_28_" gradientUnits="userSpaceOnUse" x1="557.6527" y1="218.2987" x2="558.7449" y2="227.5985" gradientTransform="matrix(-1 0 0 1 981.1797 0)">
					<stop  offset="0" style="stop-color:#555555"/>
					<stop  offset="1" style="stop-color:#FFFFFF"/>
				</linearGradient>
				<path fill-rule="evenodd" clip-rule="evenodd" fill="url(#SVGID_28_)" d="M423.612,218.254c-2.183,0-4.254,2.097-4.591,4.684
					c-0.337,2.587,1.188,4.688,3.371,4.689c2.187,0,4.213-2.102,4.55-4.689C427.279,220.351,425.8,218.254,423.612,218.254z"/>
				
					<linearGradient id="SVGID_29_" gradientUnits="userSpaceOnUse" x1="557.0889" y1="218.9267" x2="559.0421" y2="227.2594" gradientTransform="matrix(-1 0 0 1 981.1797 0)">
					<stop  offset="0" style="stop-color:#FFFFFF"/>
					<stop  offset="0.12" style="stop-color:#9E9E9E"/>
					<stop  offset="0.47" style="stop-color:#FFFFFF"/>
					<stop  offset="0.77" style="stop-color:#9B9C9C"/>
					<stop  offset="1" style="stop-color:#E3E3E3"/>
				</linearGradient>
				<path fill-rule="evenodd" clip-rule="evenodd" fill="url(#SVGID_29_)" d="M423.709,218.749c-1.987,0-3.862,1.902-4.168,4.251
					c-0.306,2.349,1.075,4.255,3.062,4.255c1.983,0,3.822-1.906,4.127-4.255C427.035,220.65,425.692,218.749,423.709,218.749z"/>
				
					<linearGradient id="SVGID_30_" gradientUnits="userSpaceOnUse" x1="557.2462" y1="219.5005" x2="558.9259" y2="226.6662" gradientTransform="matrix(-1 0 0 1 981.1797 0)">
					<stop  offset="0" style="stop-color:#FFFFFF"/>
					<stop  offset="0.12" style="stop-color:#9E9E9E"/>
					<stop  offset="0.47" style="stop-color:#FFFFFF"/>
					<stop  offset="0.77" style="stop-color:#9B9C9C"/>
					<stop  offset="1" style="stop-color:#E3E3E3"/>
				</linearGradient>
				<path fill-rule="evenodd" clip-rule="evenodd" fill="url(#SVGID_30_)" d="M422.648,226.663c-1.705,0-2.889-1.64-2.626-3.659
					c0.262-2.019,1.871-3.656,3.577-3.656c1.706,0,2.865,1.638,2.603,3.656C425.939,225.022,424.355,226.663,422.648,226.663z"/>
				
					<linearGradient id="SVGID_31_" gradientUnits="userSpaceOnUse" x1="557.4053" y1="220.0743" x2="558.8115" y2="226.0724" gradientTransform="matrix(-1 0 0 1 981.1797 0)">
					<stop  offset="0" style="stop-color:#FFFFFF"/>
					<stop  offset="0.12" style="stop-color:#9E9E9E"/>
					<stop  offset="0.47" style="stop-color:#FFFFFF"/>
					<stop  offset="0.77" style="stop-color:#9B9C9C"/>
					<stop  offset="1" style="stop-color:#E3E3E3"/>
				</linearGradient>
				<path fill-rule="evenodd" clip-rule="evenodd" fill="url(#SVGID_31_)" d="M422.698,226.071c-1.428,0-2.419-1.375-2.199-3.064
					c0.219-1.693,1.567-3.062,2.995-3.062c1.429,0,2.4,1.369,2.18,3.062C425.455,224.696,424.127,226.071,422.698,226.071z"/>
				
					<linearGradient id="SVGID_32_" gradientUnits="userSpaceOnUse" x1="557.5648" y1="220.6483" x2="558.6972" y2="225.4792" gradientTransform="matrix(-1 0 0 1 981.1797 0)">
					<stop  offset="0" style="stop-color:#FFFFFF"/>
					<stop  offset="0.12" style="stop-color:#9E9E9E"/>
					<stop  offset="0.47" style="stop-color:#FFFFFF"/>
					<stop  offset="0.77" style="stop-color:#9B9C9C"/>
					<stop  offset="1" style="stop-color:#E3E3E3"/>
				</linearGradient>
				<path fill-rule="evenodd" clip-rule="evenodd" fill="url(#SVGID_32_)" d="M422.745,225.476c-1.148,0-1.946-1.102-1.769-2.465
					c0.177-1.362,1.263-2.467,2.41-2.467c1.151,0,1.937,1.105,1.76,2.467C424.969,224.374,423.896,225.476,422.745,225.476z"/>
				
					<linearGradient id="SVGID_33_" gradientUnits="userSpaceOnUse" x1="557.7219" y1="221.2224" x2="558.5809" y2="224.8857" gradientTransform="matrix(-1 0 0 1 981.1797 0)">
					<stop  offset="0" style="stop-color:#FFFFFF"/>
					<stop  offset="0.12" style="stop-color:#9E9E9E"/>
					<stop  offset="0.47" style="stop-color:#FFFFFF"/>
					<stop  offset="0.77" style="stop-color:#9B9C9C"/>
					<stop  offset="1" style="stop-color:#E3E3E3"/>
				</linearGradient>
				<path fill-rule="evenodd" clip-rule="evenodd" fill="url(#SVGID_33_)" d="M422.796,224.885c-0.87,0-1.474-0.837-1.339-1.87
					c0.134-1.032,0.956-1.873,1.826-1.873c0.874,0,1.47,0.84,1.335,1.873C424.484,224.047,423.67,224.885,422.796,224.885z"/>
				
					<linearGradient id="SVGID_34_" gradientUnits="userSpaceOnUse" x1="557.8836" y1="221.7988" x2="558.4692" y2="224.2952" gradientTransform="matrix(-1 0 0 1 981.1797 0)">
					<stop  offset="0" style="stop-color:#FFFFFF"/>
					<stop  offset="0.12" style="stop-color:#9E9E9E"/>
					<stop  offset="0.47" style="stop-color:#FFFFFF"/>
					<stop  offset="0.77" style="stop-color:#9B9C9C"/>
					<stop  offset="1" style="stop-color:#E3E3E3"/>
				</linearGradient>
				<path fill-rule="evenodd" clip-rule="evenodd" fill="url(#SVGID_34_)" d="M422.848,224.293c-0.597,0-1.006-0.572-0.914-1.275
					c0.091-0.706,0.649-1.274,1.245-1.274c0.593,0,0.998,0.568,0.907,1.274C423.995,223.721,423.441,224.293,422.848,224.293z"/>
				
					<linearGradient id="SVGID_35_" gradientUnits="userSpaceOnUse" x1="558.0427" y1="222.3728" x2="558.3544" y2="223.7012" gradientTransform="matrix(-1 0 0 1 981.1797 0)">
					<stop  offset="0" style="stop-color:#FFFFFF"/>
					<stop  offset="0.12" style="stop-color:#9E9E9E"/>
					<stop  offset="0.47" style="stop-color:#FFFFFF"/>
					<stop  offset="0.77" style="stop-color:#9B9C9C"/>
					<stop  offset="1" style="stop-color:#E3E3E3"/>
				</linearGradient>
				<path fill-rule="evenodd" clip-rule="evenodd" fill="url(#SVGID_35_)" d="M423.073,222.343c-0.316,0-0.613,0.303-0.663,0.679
					c-0.049,0.372,0.171,0.676,0.487,0.676c0.319,0,0.612-0.303,0.661-0.676C423.607,222.646,423.393,222.343,423.073,222.343z"/>
			</g>
			<g>
				<path fill-rule="evenodd" clip-rule="evenodd" fill="#8C8C8C" d="M445,215.141c-3.153,0-6.158,3.023-6.65,6.749
					c-0.494,3.73,1.71,6.758,4.863,6.758c3.151,0,6.059-3.028,6.554-6.758C450.259,218.164,448.151,215.141,445,215.141z"/>
				
					<linearGradient id="SVGID_36_" gradientUnits="userSpaceOnUse" x1="537.9719" y1="215.8503" x2="537.9719" y2="227.9947" gradientTransform="matrix(-1 0 0 1 981.1797 0)">
					<stop  offset="0" style="stop-color:#FFFFFF"/>
					<stop  offset="0.06" style="stop-color:#D7D6D6"/>
					<stop  offset="0.2" style="stop-color:#FFFFFF"/>
					<stop  offset="0.49" style="stop-color:#FFFFFF"/>
					<stop  offset="0.61" style="stop-color:#CDCCCC"/>
					<stop  offset="0.86" style="stop-color:#878787"/>
					<stop  offset="1" style="stop-color:#9E9E9E"/>
				</linearGradient>
				<path fill-rule="evenodd" clip-rule="evenodd" fill="url(#SVGID_36_)" d="M449.691,221.883c0.44-3.331-1.451-6.033-4.267-6.032
					c-0.027,0-2.738,0-2.765,0c-2.815,0-5.498,2.702-5.937,6.032c-0.442,3.335,1.526,6.044,4.34,6.044c0.027,0,2.738,0,2.765,0
					C446.642,227.927,449.25,225.218,449.691,221.883z"/>
				
					<linearGradient id="SVGID_37_" gradientUnits="userSpaceOnUse" x1="538.4223" y1="215.7674" x2="540.2521" y2="227.966" gradientTransform="matrix(-1 0 0 1 981.1797 0)">
					<stop  offset="0" style="stop-color:#FFFFFF"/>
					<stop  offset="1" style="stop-color:#B9B9B9"/>
				</linearGradient>
				<path fill-rule="evenodd" clip-rule="evenodd" fill="url(#SVGID_37_)" d="M442.674,215.858c-2.814,0-5.497,2.701-5.938,6.036
					c-0.441,3.331,1.527,6.04,4.34,6.04c2.816,0,5.422-2.709,5.864-6.04C447.381,218.56,445.49,215.858,442.674,215.858z"/>
				
					<linearGradient id="SVGID_38_" gradientUnits="userSpaceOnUse" x1="539.252" y1="217.1928" x2="540.3442" y2="226.4927" gradientTransform="matrix(-1 0 0 1 981.1797 0)">
					<stop  offset="0" style="stop-color:#555555"/>
					<stop  offset="1" style="stop-color:#FFFFFF"/>
				</linearGradient>
				<path fill-rule="evenodd" clip-rule="evenodd" fill="url(#SVGID_38_)" d="M442.028,217.146c-2.187,0-4.263,2.097-4.605,4.683
					c-0.344,2.59,1.176,4.691,3.364,4.691c2.184,0,4.213-2.101,4.557-4.691C445.685,219.243,444.211,217.146,442.028,217.146z"/>
				
					<linearGradient id="SVGID_39_" gradientUnits="userSpaceOnUse" x1="538.6853" y1="217.8158" x2="540.639" y2="226.1514" gradientTransform="matrix(-1 0 0 1 981.1797 0)">
					<stop  offset="0" style="stop-color:#FFFFFF"/>
					<stop  offset="0.12" style="stop-color:#9E9E9E"/>
					<stop  offset="0.47" style="stop-color:#FFFFFF"/>
					<stop  offset="0.77" style="stop-color:#9B9C9C"/>
					<stop  offset="1" style="stop-color:#E3E3E3"/>
				</linearGradient>
				<path fill-rule="evenodd" clip-rule="evenodd" fill="url(#SVGID_39_)" d="M442.119,217.641c-1.983,0-3.863,1.905-4.174,4.254
					c-0.311,2.349,1.066,4.254,3.048,4.254c1.983,0,3.825-1.905,4.137-4.254C445.441,219.546,444.102,217.641,442.119,217.641z"/>
				
					<linearGradient id="SVGID_40_" gradientUnits="userSpaceOnUse" x1="538.8446" y1="218.3905" x2="540.5248" y2="225.5587" gradientTransform="matrix(-1 0 0 1 981.1797 0)">
					<stop  offset="0" style="stop-color:#FFFFFF"/>
					<stop  offset="0.12" style="stop-color:#9E9E9E"/>
					<stop  offset="0.47" style="stop-color:#FFFFFF"/>
					<stop  offset="0.77" style="stop-color:#9B9C9C"/>
					<stop  offset="1" style="stop-color:#E3E3E3"/>
				</linearGradient>
				<path fill-rule="evenodd" clip-rule="evenodd" fill="url(#SVGID_40_)" d="M441.044,225.557c-1.705,0-2.889-1.64-2.622-3.659
					c0.266-2.018,1.883-3.656,3.589-3.656c1.706,0,2.858,1.637,2.591,3.656C444.336,223.916,442.75,225.557,441.044,225.557z"/>
				
					<linearGradient id="SVGID_41_" gradientUnits="userSpaceOnUse" x1="539.0049" y1="218.9678" x2="540.4111" y2="224.9679" gradientTransform="matrix(-1 0 0 1 981.1797 0)">
					<stop  offset="0" style="stop-color:#FFFFFF"/>
					<stop  offset="0.12" style="stop-color:#9E9E9E"/>
					<stop  offset="0.47" style="stop-color:#FFFFFF"/>
					<stop  offset="0.77" style="stop-color:#9B9C9C"/>
					<stop  offset="1" style="stop-color:#E3E3E3"/>
				</linearGradient>
				<path fill-rule="evenodd" clip-rule="evenodd" fill="url(#SVGID_41_)" d="M441.092,224.961c-1.428,0-2.417-1.371-2.193-3.059
					c0.224-1.692,1.574-3.061,3.002-3.061c1.429,0,2.396,1.369,2.173,3.061C443.851,223.591,442.521,224.961,441.092,224.961z"/>
				
					<linearGradient id="SVGID_42_" gradientUnits="userSpaceOnUse" x1="539.1625" y1="219.5419" x2="540.2953" y2="224.3745" gradientTransform="matrix(-1 0 0 1 981.1797 0)">
					<stop  offset="0" style="stop-color:#FFFFFF"/>
					<stop  offset="0.12" style="stop-color:#9E9E9E"/>
					<stop  offset="0.47" style="stop-color:#FFFFFF"/>
					<stop  offset="0.77" style="stop-color:#9B9C9C"/>
					<stop  offset="1" style="stop-color:#E3E3E3"/>
				</linearGradient>
				<path fill-rule="evenodd" clip-rule="evenodd" fill="url(#SVGID_42_)" d="M441.144,224.37c-1.151,0-1.943-1.106-1.763-2.468
					c0.18-1.359,1.264-2.463,2.415-2.463c1.151,0,1.931,1.105,1.751,2.463C443.366,223.264,442.296,224.37,441.144,224.37z"/>
				
					<linearGradient id="SVGID_43_" gradientUnits="userSpaceOnUse" x1="539.3218" y1="220.1163" x2="540.1807" y2="223.781" gradientTransform="matrix(-1 0 0 1 981.1797 0)">
					<stop  offset="0" style="stop-color:#FFFFFF"/>
					<stop  offset="0.12" style="stop-color:#9E9E9E"/>
					<stop  offset="0.47" style="stop-color:#FFFFFF"/>
					<stop  offset="0.77" style="stop-color:#9B9C9C"/>
					<stop  offset="1" style="stop-color:#E3E3E3"/>
				</linearGradient>
				<path fill-rule="evenodd" clip-rule="evenodd" fill="url(#SVGID_43_)" d="M441.193,223.779c-0.871,0-1.472-0.837-1.335-1.873
					c0.136-1.032,0.959-1.868,1.83-1.868c0.874,0,1.468,0.836,1.332,1.868C442.882,222.942,442.066,223.779,441.193,223.779z"/>
				
					<linearGradient id="SVGID_44_" gradientUnits="userSpaceOnUse" x1="539.4808" y1="220.6896" x2="540.0661" y2="223.1868" gradientTransform="matrix(-1 0 0 1 981.1797 0)">
					<stop  offset="0" style="stop-color:#FFFFFF"/>
					<stop  offset="0.12" style="stop-color:#9E9E9E"/>
					<stop  offset="0.47" style="stop-color:#FFFFFF"/>
					<stop  offset="0.77" style="stop-color:#9B9C9C"/>
					<stop  offset="1" style="stop-color:#E3E3E3"/>
				</linearGradient>
				<path fill-rule="evenodd" clip-rule="evenodd" fill="url(#SVGID_44_)" d="M441.246,223.188c-0.593,0-1.004-0.572-0.911-1.278
					c0.093-0.702,0.655-1.274,1.248-1.274c0.597,0,1.001,0.572,0.908,1.274C442.397,222.616,441.842,223.188,441.246,223.188z"/>
				
					<linearGradient id="SVGID_45_" gradientUnits="userSpaceOnUse" x1="539.6389" y1="221.267" x2="539.9503" y2="222.5959" gradientTransform="matrix(-1 0 0 1 981.1797 0)">
					<stop  offset="0" style="stop-color:#FFFFFF"/>
					<stop  offset="0.12" style="stop-color:#9E9E9E"/>
					<stop  offset="0.47" style="stop-color:#FFFFFF"/>
					<stop  offset="0.77" style="stop-color:#9B9C9C"/>
					<stop  offset="1" style="stop-color:#E3E3E3"/>
				</linearGradient>
				<path fill-rule="evenodd" clip-rule="evenodd" fill="url(#SVGID_45_)" d="M441.48,221.234c-0.32,0-0.615,0.307-0.664,0.679
					c-0.05,0.376,0.165,0.679,0.484,0.679c0.315,0,0.613-0.303,0.663-0.679C442.012,221.541,441.795,221.234,441.48,221.234z"/>
			</g>
			<g>
				<path fill-rule="evenodd" clip-rule="evenodd" fill="#8C8C8C" d="M390.764,216.908c-3.152,0-6.147,3.02-6.626,6.752
					c-0.481,3.731,1.735,6.761,4.887,6.76c3.151,0,6.049-3.029,6.53-6.76C396.034,219.928,393.915,216.908,390.764,216.908z"/>
				
					<linearGradient id="SVGID_46_" gradientUnits="userSpaceOnUse" x1="592.184" y1="217.6175" x2="592.184" y2="229.7665" gradientTransform="matrix(-1 0 0 1 981.1797 0)">
					<stop  offset="0" style="stop-color:#FFFFFF"/>
					<stop  offset="0.06" style="stop-color:#D7D6D6"/>
					<stop  offset="0.2" style="stop-color:#FFFFFF"/>
					<stop  offset="0.49" style="stop-color:#FFFFFF"/>
					<stop  offset="0.61" style="stop-color:#CDCCCC"/>
					<stop  offset="0.86" style="stop-color:#878787"/>
					<stop  offset="1" style="stop-color:#9E9E9E"/>
				</linearGradient>
				<path fill-rule="evenodd" clip-rule="evenodd" fill="url(#SVGID_46_)" d="M395.479,223.652c0.428-3.332-1.472-6.035-4.288-6.035
					c-0.027,0-2.737,0-2.765,0c-2.814,0-5.488,2.702-5.916,6.035c-0.43,3.336,1.548,6.042,4.362,6.042c0.027,0,2.738,0,2.765,0
					C392.453,229.694,395.049,226.988,395.479,223.652z"/>
				
					<linearGradient id="SVGID_47_" gradientUnits="userSpaceOnUse" x1="592.6337" y1="217.5338" x2="594.4632" y2="229.7307" gradientTransform="matrix(-1 0 0 1 981.1797 0)">
					<stop  offset="0" style="stop-color:#FFFFFF"/>
					<stop  offset="1" style="stop-color:#B9B9B9"/>
				</linearGradient>
				<path fill-rule="evenodd" clip-rule="evenodd" fill="url(#SVGID_47_)" d="M388.441,217.625c-2.815,0-5.487,2.703-5.916,6.035
					c-0.43,3.336,1.547,6.046,4.362,6.046c2.815,0,5.413-2.71,5.842-6.046C393.157,220.328,391.256,217.625,388.441,217.625z"/>
				
					<linearGradient id="SVGID_48_" gradientUnits="userSpaceOnUse" x1="593.4638" y1="218.9589" x2="594.556" y2="228.2585" gradientTransform="matrix(-1 0 0 1 981.1797 0)">
					<stop  offset="0" style="stop-color:#555555"/>
					<stop  offset="1" style="stop-color:#FFFFFF"/>
				</linearGradient>
				<path fill-rule="evenodd" clip-rule="evenodd" fill="url(#SVGID_48_)" d="M387.799,218.914c-2.187,0-4.255,2.098-4.588,4.685
					c-0.334,2.591,1.194,4.693,3.38,4.693c2.188,0,4.206-2.102,4.54-4.693C391.464,221.011,389.987,218.913,387.799,218.914z"/>
				
					<linearGradient id="SVGID_49_" gradientUnits="userSpaceOnUse" x1="592.8982" y1="219.5871" x2="594.851" y2="227.9185" gradientTransform="matrix(-1 0 0 1 981.1797 0)">
					<stop  offset="0" style="stop-color:#FFFFFF"/>
					<stop  offset="0.12" style="stop-color:#9E9E9E"/>
					<stop  offset="0.47" style="stop-color:#FFFFFF"/>
					<stop  offset="0.77" style="stop-color:#9B9C9C"/>
					<stop  offset="1" style="stop-color:#E3E3E3"/>
				</linearGradient>
				<path fill-rule="evenodd" clip-rule="evenodd" fill="url(#SVGID_49_)" d="M387.892,219.408c-1.982,0-3.857,1.906-4.158,4.252
					c-0.303,2.349,1.081,4.259,3.063,4.259c1.984,0,3.82-1.91,4.122-4.259C391.221,221.314,389.875,219.408,387.892,219.408z"/>
				
					<linearGradient id="SVGID_50_" gradientUnits="userSpaceOnUse" x1="593.0572" y1="220.161" x2="594.7366" y2="227.3256" gradientTransform="matrix(-1 0 0 1 981.1797 0)">
					<stop  offset="0" style="stop-color:#FFFFFF"/>
					<stop  offset="0.12" style="stop-color:#9E9E9E"/>
					<stop  offset="0.47" style="stop-color:#FFFFFF"/>
					<stop  offset="0.77" style="stop-color:#9B9C9C"/>
					<stop  offset="1" style="stop-color:#E3E3E3"/>
				</linearGradient>
				<path fill-rule="evenodd" clip-rule="evenodd" fill="url(#SVGID_50_)" d="M386.846,227.327c-1.706,0-2.895-1.641-2.635-3.663
					c0.259-2.019,1.871-3.657,3.576-3.657c1.706,0,2.864,1.638,2.604,3.657C390.131,225.687,388.552,227.327,386.846,227.327z"/>
				
					<linearGradient id="SVGID_51_" gradientUnits="userSpaceOnUse" x1="593.2172" y1="220.7386" x2="594.6232" y2="226.7356" gradientTransform="matrix(-1 0 0 1 981.1797 0)">
					<stop  offset="0" style="stop-color:#FFFFFF"/>
					<stop  offset="0.12" style="stop-color:#9E9E9E"/>
					<stop  offset="0.47" style="stop-color:#FFFFFF"/>
					<stop  offset="0.77" style="stop-color:#9B9C9C"/>
					<stop  offset="1" style="stop-color:#E3E3E3"/>
				</linearGradient>
				<path fill-rule="evenodd" clip-rule="evenodd" fill="url(#SVGID_51_)" d="M386.891,226.732c-1.428,0-2.421-1.371-2.203-3.064
					c0.217-1.689,1.562-3.059,2.991-3.059c1.429,0,2.401,1.369,2.184,3.059C389.645,225.36,388.32,226.732,386.891,226.732z"/>
				
					<linearGradient id="SVGID_52_" gradientUnits="userSpaceOnUse" x1="593.3745" y1="221.3123" x2="594.5068" y2="226.1423" gradientTransform="matrix(-1 0 0 1 981.1797 0)">
					<stop  offset="0" style="stop-color:#FFFFFF"/>
					<stop  offset="0.12" style="stop-color:#9E9E9E"/>
					<stop  offset="0.47" style="stop-color:#FFFFFF"/>
					<stop  offset="0.77" style="stop-color:#9B9C9C"/>
					<stop  offset="1" style="stop-color:#E3E3E3"/>
				</linearGradient>
				<path fill-rule="evenodd" clip-rule="evenodd" fill="url(#SVGID_52_)" d="M386.941,226.14c-1.152,0-1.947-1.106-1.772-2.469
					c0.174-1.359,1.255-2.464,2.406-2.464c1.151,0,1.934,1.105,1.76,2.464C389.16,225.034,388.092,226.14,386.941,226.14z"/>
				
					<linearGradient id="SVGID_53_" gradientUnits="userSpaceOnUse" x1="593.5335" y1="221.8863" x2="594.3923" y2="225.549" gradientTransform="matrix(-1 0 0 1 981.1797 0)">
					<stop  offset="0" style="stop-color:#FFFFFF"/>
					<stop  offset="0.12" style="stop-color:#9E9E9E"/>
					<stop  offset="0.47" style="stop-color:#FFFFFF"/>
					<stop  offset="0.77" style="stop-color:#9B9C9C"/>
					<stop  offset="1" style="stop-color:#E3E3E3"/>
				</linearGradient>
				<path fill-rule="evenodd" clip-rule="evenodd" fill="url(#SVGID_53_)" d="M386.991,225.549c-0.873,0-1.478-0.841-1.345-1.874
					c0.133-1.032,0.952-1.869,1.826-1.869c0.871,0,1.468,0.837,1.335,1.869C388.674,224.708,387.861,225.549,386.991,225.549z"/>
				
					<linearGradient id="SVGID_54_" gradientUnits="userSpaceOnUse" x1="593.6906" y1="222.4601" x2="594.2761" y2="224.9561" gradientTransform="matrix(-1 0 0 1 981.1797 0)">
					<stop  offset="0" style="stop-color:#FFFFFF"/>
					<stop  offset="0.12" style="stop-color:#9E9E9E"/>
					<stop  offset="0.47" style="stop-color:#FFFFFF"/>
					<stop  offset="0.77" style="stop-color:#9B9C9C"/>
					<stop  offset="1" style="stop-color:#E3E3E3"/>
				</linearGradient>
				<path fill-rule="evenodd" clip-rule="evenodd" fill="url(#SVGID_54_)" d="M387.039,224.954c-0.593,0-1.003-0.568-0.912-1.275
					c0.09-0.702,0.647-1.274,1.24-1.274c0.597,0,1.003,0.572,0.913,1.274C388.189,224.385,387.636,224.954,387.039,224.954z"/>
				
					<linearGradient id="SVGID_55_" gradientUnits="userSpaceOnUse" x1="593.8498" y1="223.0331" x2="594.1615" y2="224.3614" gradientTransform="matrix(-1 0 0 1 981.1797 0)">
					<stop  offset="0" style="stop-color:#FFFFFF"/>
					<stop  offset="0.12" style="stop-color:#9E9E9E"/>
					<stop  offset="0.47" style="stop-color:#FFFFFF"/>
					<stop  offset="0.77" style="stop-color:#9B9C9C"/>
					<stop  offset="1" style="stop-color:#E3E3E3"/>
				</linearGradient>
				<path fill-rule="evenodd" clip-rule="evenodd" fill="url(#SVGID_55_)" d="M387.265,223.003c-0.316,0-0.613,0.303-0.662,0.68
					c-0.048,0.376,0.171,0.679,0.487,0.679c0.316,0,0.612-0.303,0.661-0.679C387.8,223.306,387.581,223.003,387.265,223.003z"/>
			</g>
			<g>
				<path fill-rule="evenodd" clip-rule="evenodd" fill="#8C8C8C" d="M408.386,216.49c-3.149,0-6.146,3.024-6.628,6.755
					c-0.483,3.727,1.729,6.76,4.878,6.76c3.15,0,6.052-3.033,6.535-6.76C413.654,219.514,411.537,216.491,408.386,216.49z"/>
				
					<linearGradient id="SVGID_56_" gradientUnits="userSpaceOnUse" x1="574.566" y1="217.2034" x2="574.566" y2="229.351" gradientTransform="matrix(-1 0 0 1 981.1797 0)">
					<stop  offset="0" style="stop-color:#FFFFFF"/>
					<stop  offset="0.06" style="stop-color:#D7D6D6"/>
					<stop  offset="0.2" style="stop-color:#FFFFFF"/>
					<stop  offset="0.49" style="stop-color:#FFFFFF"/>
					<stop  offset="0.61" style="stop-color:#CDCCCC"/>
					<stop  offset="0.86" style="stop-color:#878787"/>
					<stop  offset="1" style="stop-color:#9E9E9E"/>
				</linearGradient>
				<path fill-rule="evenodd" clip-rule="evenodd" fill="url(#SVGID_56_)" d="M413.095,223.238c0.43-3.332-1.464-6.034-4.283-6.034
					c-0.023,0-2.734,0-2.761,0c-2.818,0-5.49,2.702-5.921,6.034c-0.432,3.335,1.539,6.041,4.357,6.041c0.027,0,2.737,0,2.761,0
					C410.068,229.279,412.663,226.573,413.095,223.238z"/>
				
					<linearGradient id="SVGID_57_" gradientUnits="userSpaceOnUse" x1="575.0156" y1="217.1187" x2="576.8453" y2="229.3157" gradientTransform="matrix(-1 0 0 1 981.1797 0)">
					<stop  offset="0" style="stop-color:#FFFFFF"/>
					<stop  offset="1" style="stop-color:#B9B9B9"/>
				</linearGradient>
				<path fill-rule="evenodd" clip-rule="evenodd" fill="url(#SVGID_57_)" d="M406.062,217.211c-2.814,0-5.486,2.702-5.917,6.034
					c-0.432,3.336,1.539,6.041,4.353,6.041c2.819,0,5.415-2.706,5.847-6.041C410.776,219.913,408.881,217.211,406.062,217.211z"/>
				
					<linearGradient id="SVGID_58_" gradientUnits="userSpaceOnUse" x1="575.844" y1="218.5446" x2="576.9361" y2="227.844" gradientTransform="matrix(-1 0 0 1 981.1797 0)">
					<stop  offset="0" style="stop-color:#555555"/>
					<stop  offset="1" style="stop-color:#FFFFFF"/>
				</linearGradient>
				<path fill-rule="evenodd" clip-rule="evenodd" fill="url(#SVGID_58_)" d="M405.419,218.499c-2.183,0-4.253,2.097-4.588,4.684
					c-0.336,2.587,1.19,4.689,3.373,4.689c2.187,0,4.212-2.102,4.548-4.689C409.086,220.597,407.606,218.499,405.419,218.499z"/>
				
					<linearGradient id="SVGID_59_" gradientUnits="userSpaceOnUse" x1="575.2803" y1="219.1724" x2="577.2332" y2="227.5051" gradientTransform="matrix(-1 0 0 1 981.1797 0)">
					<stop  offset="0" style="stop-color:#FFFFFF"/>
					<stop  offset="0.12" style="stop-color:#9E9E9E"/>
					<stop  offset="0.47" style="stop-color:#FFFFFF"/>
					<stop  offset="0.77" style="stop-color:#9B9C9C"/>
					<stop  offset="1" style="stop-color:#E3E3E3"/>
				</linearGradient>
				<path fill-rule="evenodd" clip-rule="evenodd" fill="url(#SVGID_59_)" d="M405.512,218.994c-1.983,0-3.858,1.902-4.162,4.251
					c-0.304,2.349,1.077,4.259,3.06,4.258c1.987,0,3.825-1.909,4.129-4.258C408.843,220.896,407.499,218.994,405.512,218.994z"/>
				
					<linearGradient id="SVGID_60_" gradientUnits="userSpaceOnUse" x1="575.4375" y1="219.7462" x2="577.1171" y2="226.9118" gradientTransform="matrix(-1 0 0 1 981.1797 0)">
					<stop  offset="0" style="stop-color:#FFFFFF"/>
					<stop  offset="0.12" style="stop-color:#9E9E9E"/>
					<stop  offset="0.47" style="stop-color:#FFFFFF"/>
					<stop  offset="0.77" style="stop-color:#9B9C9C"/>
					<stop  offset="1" style="stop-color:#E3E3E3"/>
				</linearGradient>
				<path fill-rule="evenodd" clip-rule="evenodd" fill="url(#SVGID_60_)" d="M404.459,226.908c-1.705,0-2.889-1.64-2.628-3.659
					c0.261-2.019,1.87-3.657,3.575-3.657c1.707,0,2.866,1.638,2.605,3.657C407.749,225.268,406.165,226.909,404.459,226.908z"/>
				
					<linearGradient id="SVGID_61_" gradientUnits="userSpaceOnUse" x1="575.5968" y1="220.3211" x2="577.0026" y2="226.3191" gradientTransform="matrix(-1 0 0 1 981.1797 0)">
					<stop  offset="0" style="stop-color:#FFFFFF"/>
					<stop  offset="0.12" style="stop-color:#9E9E9E"/>
					<stop  offset="0.47" style="stop-color:#FFFFFF"/>
					<stop  offset="0.77" style="stop-color:#9B9C9C"/>
					<stop  offset="1" style="stop-color:#E3E3E3"/>
				</linearGradient>
				<path fill-rule="evenodd" clip-rule="evenodd" fill="url(#SVGID_61_)" d="M404.508,226.317c-1.429,0-2.419-1.371-2.2-3.064
					c0.219-1.689,1.565-3.062,2.994-3.062c1.428,0,2.4,1.373,2.181,3.062C407.264,224.946,405.937,226.317,404.508,226.317z"/>
				
					<linearGradient id="SVGID_62_" gradientUnits="userSpaceOnUse" x1="575.7559" y1="220.8942" x2="576.8882" y2="225.7252" gradientTransform="matrix(-1 0 0 1 981.1797 0)">
					<stop  offset="0" style="stop-color:#FFFFFF"/>
					<stop  offset="0.12" style="stop-color:#9E9E9E"/>
					<stop  offset="0.47" style="stop-color:#FFFFFF"/>
					<stop  offset="0.77" style="stop-color:#9B9C9C"/>
					<stop  offset="1" style="stop-color:#E3E3E3"/>
				</linearGradient>
				<path fill-rule="evenodd" clip-rule="evenodd" fill="url(#SVGID_62_)" d="M404.554,225.725c-1.147,0-1.946-1.106-1.769-2.469
					c0.176-1.362,1.261-2.467,2.409-2.467c1.152,0,1.938,1.105,1.761,2.467C406.778,224.619,405.706,225.726,404.554,225.725z"/>
				
					<linearGradient id="SVGID_63_" gradientUnits="userSpaceOnUse" x1="575.916" y1="221.4717" x2="576.7745" y2="225.135" gradientTransform="matrix(-1 0 0 1 981.1797 0)">
					<stop  offset="0" style="stop-color:#FFFFFF"/>
					<stop  offset="0.12" style="stop-color:#9E9E9E"/>
					<stop  offset="0.47" style="stop-color:#FFFFFF"/>
					<stop  offset="0.77" style="stop-color:#9B9C9C"/>
					<stop  offset="1" style="stop-color:#E3E3E3"/>
				</linearGradient>
				<path fill-rule="evenodd" clip-rule="evenodd" fill="url(#SVGID_63_)" d="M404.606,225.13c-0.874,0-1.474-0.837-1.34-1.87
					c0.134-1.033,0.95-1.869,1.824-1.869c0.874,0,1.467,0.836,1.333,1.869C406.289,224.293,405.48,225.13,404.606,225.13z"/>
				
					<linearGradient id="SVGID_64_" gradientUnits="userSpaceOnUse" x1="576.075" y1="222.0447" x2="576.6602" y2="224.541" gradientTransform="matrix(-1 0 0 1 981.1797 0)">
					<stop  offset="0" style="stop-color:#FFFFFF"/>
					<stop  offset="0.12" style="stop-color:#9E9E9E"/>
					<stop  offset="0.47" style="stop-color:#FFFFFF"/>
					<stop  offset="0.77" style="stop-color:#9B9C9C"/>
					<stop  offset="1" style="stop-color:#E3E3E3"/>
				</linearGradient>
				<path fill-rule="evenodd" clip-rule="evenodd" fill="url(#SVGID_64_)" d="M404.657,224.539c-0.597,0-1.006-0.572-0.915-1.275
					c0.091-0.702,0.648-1.274,1.245-1.274c0.593,0,0.998,0.571,0.908,1.274C405.804,223.967,405.25,224.539,404.657,224.539z"/>
				
					<linearGradient id="SVGID_65_" gradientUnits="userSpaceOnUse" x1="576.2341" y1="222.6185" x2="576.5454" y2="223.9469" gradientTransform="matrix(-1 0 0 1 981.1797 0)">
					<stop  offset="0" style="stop-color:#FFFFFF"/>
					<stop  offset="0.12" style="stop-color:#9E9E9E"/>
					<stop  offset="0.47" style="stop-color:#FFFFFF"/>
					<stop  offset="0.77" style="stop-color:#9B9C9C"/>
					<stop  offset="1" style="stop-color:#E3E3E3"/>
				</linearGradient>
				<path fill-rule="evenodd" clip-rule="evenodd" fill="url(#SVGID_65_)" d="M404.882,222.589c-0.316,0-0.613,0.303-0.662,0.679
					c-0.048,0.372,0.17,0.679,0.486,0.679c0.315,0,0.613-0.307,0.661-0.679C405.416,222.892,405.197,222.589,404.882,222.589z"/>
			</g>
			<path fill-rule="evenodd" clip-rule="evenodd" fill="#666666" d="M482.273,321.446c-1.741-25.61-1.508-51.321,0.697-76.905
				c-33.967,0.652-67.932,1.305-101.896,1.957c-2.002,24.344-2.218,48.798-0.65,73.166
				C414.372,320.259,448.322,320.853,482.273,321.446z"/>
			
				<linearGradient id="SVGID_66_" gradientUnits="userSpaceOnUse" x1="601.496" y1="295.9189" x2="563.5048" y2="286.4319" gradientTransform="matrix(-1 0 0 1 981.1797 0)">
				<stop  offset="0" style="stop-color:#914D30"/>
				<stop  offset="1" style="stop-color:#3E1B0D"/>
			</linearGradient>
			<path display="none" fill-rule="evenodd" clip-rule="evenodd" fill="url(#SVGID_66_)" d="M481.296,319.889
				c-1.642-25.335-1.355-50.765,0.863-76.067c-33.353,0.716-66.705,1.433-100.056,2.149c-1.991,23.907-2.261,47.922-0.808,71.858
				C414.627,318.516,447.961,319.202,481.296,319.889z"/>
			
				<linearGradient id="SVGID_67_" gradientUnits="userSpaceOnUse" x1="507.1738" y1="275.4267" x2="567.5905" y2="288.1363" gradientTransform="matrix(-1 0 0 1 981.1797 0)">
				<stop  offset="0" style="stop-color:#A1A1A0"/>
				<stop  offset="1" style="stop-color:#6A5348"/>
			</linearGradient>
			<path display="none" fill-rule="evenodd" clip-rule="evenodd" fill="url(#SVGID_67_)" d="M475.956,317.632
				c-1.429-23.695-1.17-47.466,0.776-71.134c-24.638,0.429-49.275,0.858-73.912,1.287c5.299,22.952,12.185,45.998,20.658,68.975
				C440.971,317.051,458.464,317.342,475.956,317.632z"/>
			
				<linearGradient id="SVGID_68_" gradientUnits="userSpaceOnUse" x1="601.496" y1="295.9189" x2="563.5048" y2="286.4319" gradientTransform="matrix(-1 0 0 1 981.1797 0)">
				<stop  offset="0" style="stop-color:#77787B"/>
				<stop  offset="1" style="stop-color:#000000"/>
			</linearGradient>
			<path fill-rule="evenodd" clip-rule="evenodd" fill="url(#SVGID_68_)" d="M481.296,319.889
				c-1.642-25.335-1.355-50.765,0.863-76.067c-33.353,0.716-66.705,1.433-100.056,2.149c-1.991,23.907-2.261,47.922-0.808,71.858
				C414.627,318.516,447.961,319.202,481.296,319.889z"/>
			
				<linearGradient id="SVGID_69_" gradientUnits="userSpaceOnUse" x1="507.1738" y1="275.4267" x2="567.5905" y2="288.1363" gradientTransform="matrix(-1 0 0 1 981.1797 0)">
				<stop  offset="0" style="stop-color:#8C8C8C"/>
				<stop  offset="1" style="stop-color:#4F4F4F"/>
			</linearGradient>
			<path opacity="0.5" fill-rule="evenodd" clip-rule="evenodd" fill="url(#SVGID_69_)" d="M475.956,317.632
				c-1.429-23.695-1.17-47.466,0.776-71.134c-24.638,0.429-49.275,0.858-73.912,1.287c5.299,22.952,12.185,45.998,20.658,68.975
				C440.971,317.051,458.464,317.342,475.956,317.632z"/>
			
				<linearGradient id="SVGID_70_" gradientUnits="userSpaceOnUse" x1="501.7065" y1="240.1842" x2="596.6695" y2="324.3633" gradientTransform="matrix(-1 0 0 1 981.1797 0)">
				<stop  offset="0" style="stop-color:#B9B9B9"/>
				<stop  offset="0.54" style="stop-color:#CDCCCC"/>
				<stop  offset="0.62" style="stop-color:#818181"/>
				<stop  offset="1" style="stop-color:#0F0F0F"/>
			</linearGradient>
			<path fill-rule="evenodd" clip-rule="evenodd" fill="url(#SVGID_70_)" d="M380.216,318.697
				c-1.518-24.32-1.259-48.723,0.779-73.015c33.9-0.62,67.801-1.24,101.703-1.86c-2.218,25.302-2.505,50.732-0.863,76.067
				C447.961,319.491,414.088,319.094,380.216,318.697z M476.146,250.607c-30.41,0.492-60.818,0.984-91.227,1.476
				c-1.423,20.035-1.639,40.135-0.647,60.19c30.388,0.274,60.776,0.548,91.165,0.822
				C474.372,292.275,474.608,271.405,476.146,250.607z"/>
			<g>
				<path fill-rule="evenodd" clip-rule="evenodd" fill="#8C8C8C" d="M478.139,214.452c-3.153,0-6.162,3.022-6.659,6.748
					c-0.5,3.729,1.701,6.758,4.854,6.757c3.151,0,6.064-3.028,6.563-6.757C483.394,217.474,481.29,214.452,478.139,214.452z"/>
				
					<linearGradient id="SVGID_71_" gradientUnits="userSpaceOnUse" x1="504.8421" y1="215.1605" x2="504.8421" y2="227.3032" gradientTransform="matrix(-1 0 0 1 981.1797 0)">
					<stop  offset="0" style="stop-color:#FFFFFF"/>
					<stop  offset="0.06" style="stop-color:#D7D6D6"/>
					<stop  offset="0.2" style="stop-color:#FFFFFF"/>
					<stop  offset="0.49" style="stop-color:#FFFFFF"/>
					<stop  offset="0.61" style="stop-color:#CDCCCC"/>
					<stop  offset="0.86" style="stop-color:#878787"/>
					<stop  offset="1" style="stop-color:#9E9E9E"/>
				</linearGradient>
				<path fill-rule="evenodd" clip-rule="evenodd" fill="url(#SVGID_71_)" d="M482.821,221.192c0.445-3.33-1.443-6.032-4.258-6.032
					c-0.027,0-2.738,0-2.765,0c-2.814,0-5.501,2.701-5.946,6.032c-0.446,3.334,1.517,6.043,4.331,6.043c0.027,0,2.737,0,2.765,0
					C479.764,227.235,482.375,224.526,482.821,221.192z"/>
				
					<linearGradient id="SVGID_72_" gradientUnits="userSpaceOnUse" x1="505.2923" y1="215.0761" x2="507.1223" y2="227.2756" gradientTransform="matrix(-1 0 0 1 981.1797 0)">
					<stop  offset="0" style="stop-color:#FFFFFF"/>
					<stop  offset="1" style="stop-color:#B9B9B9"/>
				</linearGradient>
				<path fill-rule="evenodd" clip-rule="evenodd" fill="url(#SVGID_72_)" d="M475.812,215.168c-2.814,0-5.501,2.701-5.946,6.035
					c-0.445,3.33,1.518,6.039,4.332,6.039c2.815,0,5.426-2.708,5.872-6.039C480.516,217.869,478.628,215.168,475.812,215.168z"/>
				
					<linearGradient id="SVGID_73_" gradientUnits="userSpaceOnUse" x1="506.1224" y1="216.5023" x2="507.2146" y2="225.8024" gradientTransform="matrix(-1 0 0 1 981.1797 0)">
					<stop  offset="0" style="stop-color:#555555"/>
					<stop  offset="1" style="stop-color:#FFFFFF"/>
				</linearGradient>
				<path fill-rule="evenodd" clip-rule="evenodd" fill="url(#SVGID_73_)" d="M475.164,216.456c-2.187,0-4.266,2.096-4.611,4.682
					c-0.347,2.59,1.17,4.691,3.357,4.691c2.184,0,4.216-2.101,4.563-4.691C478.818,218.552,477.348,216.456,475.164,216.456z"/>
				
					<linearGradient id="SVGID_74_" gradientUnits="userSpaceOnUse" x1="505.5556" y1="217.1247" x2="507.5096" y2="225.4617" gradientTransform="matrix(-1 0 0 1 981.1797 0)">
					<stop  offset="0" style="stop-color:#FFFFFF"/>
					<stop  offset="0.12" style="stop-color:#9E9E9E"/>
					<stop  offset="0.47" style="stop-color:#FFFFFF"/>
					<stop  offset="0.77" style="stop-color:#9B9C9C"/>
					<stop  offset="1" style="stop-color:#E3E3E3"/>
				</linearGradient>
				<path fill-rule="evenodd" clip-rule="evenodd" fill="url(#SVGID_74_)" d="M475.255,216.95c-1.983,0-3.866,1.905-4.18,4.253
					c-0.314,2.348,1.06,4.253,3.043,4.253c1.983,0,3.828-1.905,4.143-4.253C478.574,218.855,477.238,216.95,475.255,216.95z"/>
				
					<linearGradient id="SVGID_75_" gradientUnits="userSpaceOnUse" x1="505.7149" y1="217.6991" x2="507.3953" y2="224.8684" gradientTransform="matrix(-1 0 0 1 981.1797 0)">
					<stop  offset="0" style="stop-color:#FFFFFF"/>
					<stop  offset="0.12" style="stop-color:#9E9E9E"/>
					<stop  offset="0.47" style="stop-color:#FFFFFF"/>
					<stop  offset="0.77" style="stop-color:#9B9C9C"/>
					<stop  offset="1" style="stop-color:#E3E3E3"/>
				</linearGradient>
				<path fill-rule="evenodd" clip-rule="evenodd" fill="url(#SVGID_75_)" d="M474.169,224.865c-1.706,0-2.887-1.64-2.617-3.658
					c0.269-2.018,1.888-3.655,3.594-3.655c1.706,0,2.855,1.637,2.586,3.655C477.462,223.226,475.875,224.865,474.169,224.865z"/>
				
					<linearGradient id="SVGID_76_" gradientUnits="userSpaceOnUse" x1="505.8752" y1="218.2771" x2="507.2817" y2="224.2783" gradientTransform="matrix(-1 0 0 1 981.1797 0)">
					<stop  offset="0" style="stop-color:#FFFFFF"/>
					<stop  offset="0.12" style="stop-color:#9E9E9E"/>
					<stop  offset="0.47" style="stop-color:#FFFFFF"/>
					<stop  offset="0.77" style="stop-color:#9B9C9C"/>
					<stop  offset="1" style="stop-color:#E3E3E3"/>
				</linearGradient>
				<path fill-rule="evenodd" clip-rule="evenodd" fill="url(#SVGID_76_)" d="M474.218,224.27c-1.428,0-2.414-1.371-2.188-3.059
					c0.226-1.692,1.578-3.061,3.006-3.061c1.429,0,2.395,1.369,2.169,3.061C476.978,222.9,475.646,224.27,474.218,224.27z"/>
				
					<linearGradient id="SVGID_77_" gradientUnits="userSpaceOnUse" x1="506.0327" y1="218.8509" x2="507.1656" y2="223.6844" gradientTransform="matrix(-1 0 0 1 981.1797 0)">
					<stop  offset="0" style="stop-color:#FFFFFF"/>
					<stop  offset="0.12" style="stop-color:#9E9E9E"/>
					<stop  offset="0.47" style="stop-color:#FFFFFF"/>
					<stop  offset="0.77" style="stop-color:#9B9C9C"/>
					<stop  offset="1" style="stop-color:#E3E3E3"/>
				</linearGradient>
				<path fill-rule="evenodd" clip-rule="evenodd" fill="url(#SVGID_77_)" d="M474.27,223.679c-1.151,0-1.942-1.106-1.76-2.468
					c0.181-1.358,1.268-2.462,2.419-2.463c1.151,0,1.929,1.105,1.748,2.463C476.495,222.573,475.422,223.679,474.27,223.679z"/>
				
					<linearGradient id="SVGID_78_" gradientUnits="userSpaceOnUse" x1="506.192" y1="219.4254" x2="507.051" y2="223.0907" gradientTransform="matrix(-1 0 0 1 981.1797 0)">
					<stop  offset="0" style="stop-color:#FFFFFF"/>
					<stop  offset="0.12" style="stop-color:#9E9E9E"/>
					<stop  offset="0.47" style="stop-color:#FFFFFF"/>
					<stop  offset="0.77" style="stop-color:#9B9C9C"/>
					<stop  offset="1" style="stop-color:#E3E3E3"/>
				</linearGradient>
				<path fill-rule="evenodd" clip-rule="evenodd" fill="url(#SVGID_78_)" d="M474.32,223.088c-0.87,0-1.471-0.837-1.332-1.873
					c0.138-1.032,0.962-1.868,1.832-1.868c0.874,0,1.467,0.836,1.329,1.868C476.01,222.251,475.194,223.088,474.32,223.088z"/>
				
					<linearGradient id="SVGID_79_" gradientUnits="userSpaceOnUse" x1="506.351" y1="219.9988" x2="506.9365" y2="222.4964" gradientTransform="matrix(-1 0 0 1 981.1797 0)">
					<stop  offset="0" style="stop-color:#FFFFFF"/>
					<stop  offset="0.12" style="stop-color:#9E9E9E"/>
					<stop  offset="0.47" style="stop-color:#FFFFFF"/>
					<stop  offset="0.77" style="stop-color:#9B9C9C"/>
					<stop  offset="1" style="stop-color:#E3E3E3"/>
				</linearGradient>
				<path fill-rule="evenodd" clip-rule="evenodd" fill="url(#SVGID_79_)" d="M474.373,222.497c-0.593,0-1.003-0.572-0.909-1.278
					c0.094-0.702,0.657-1.274,1.25-1.274c0.597,0,1,0.572,0.906,1.274C475.526,221.925,474.97,222.497,474.373,222.497z"/>
				
					<linearGradient id="SVGID_80_" gradientUnits="userSpaceOnUse" x1="506.5092" y1="220.5763" x2="506.8207" y2="221.9053" gradientTransform="matrix(-1 0 0 1 981.1797 0)">
					<stop  offset="0" style="stop-color:#FFFFFF"/>
					<stop  offset="0.12" style="stop-color:#9E9E9E"/>
					<stop  offset="0.47" style="stop-color:#FFFFFF"/>
					<stop  offset="0.77" style="stop-color:#9B9C9C"/>
					<stop  offset="1" style="stop-color:#E3E3E3"/>
				</linearGradient>
				<path fill-rule="evenodd" clip-rule="evenodd" fill="url(#SVGID_80_)" d="M474.61,220.544c-0.32,0-0.615,0.307-0.665,0.679
					c-0.05,0.376,0.164,0.679,0.483,0.679c0.316,0,0.613-0.303,0.664-0.679C475.142,220.851,474.926,220.544,474.61,220.544z"/>
			</g>
			<path fill-rule="evenodd" clip-rule="evenodd" fill="#808080" d="M457.901,240.187c-19.639,0.47-39.277,0.939-58.915,1.409
				C412.109,239.278,439.304,238.574,457.901,240.187z"/>
			
				<radialGradient id="SVGID_81_" cx="546.5474" cy="241.4804" r="34.5108" gradientTransform="matrix(-1 0 0 1 981.1797 0)" gradientUnits="userSpaceOnUse">
				<stop  offset="0" style="stop-color:#FFFFFF"/>
				<stop  offset="0.41" style="stop-color:#FFFFFF"/>
				<stop  offset="1" style="stop-color:#5E5F5F"/>
			</radialGradient>
			<path fill-rule="evenodd" clip-rule="evenodd" fill="url(#SVGID_81_)" d="M458.446,237.177
				c-20.926-0.508-44.342,0.011-59.059,1.305c-0.102,1.036-0.201,2.073-0.296,3.11c9.536-1.182,31.375-1.44,59.051-1.305
				C458.24,239.25,458.341,238.213,458.446,237.177z"/>
			<path fill-rule="evenodd" clip-rule="evenodd" fill="#E5E5E5" d="M489.636,330.896c-0.028-0.385-0.056-0.77-0.084-1.156
				c-38.189-0.535-76.377-1.071-114.565-1.606c0.026,0.385,0.053,0.771,0.08,1.156C413.256,329.825,451.446,330.36,489.636,330.896z
				"/>
			<path fill-rule="evenodd" clip-rule="evenodd" fill="#7A7A7A" d="M489.633,329.509c-0.027-0.385-0.054-0.771-0.081-1.156
				c-38.188-0.536-76.374-1.071-114.56-1.607c0.025,0.385,0.051,0.771,0.077,1.156C413.256,328.438,451.444,328.974,489.633,329.509
				z"/>
			<path fill-rule="evenodd" clip-rule="evenodd" fill="#4F4F4F" d="M460.696,333.522c-21.097-0.246-42.194-0.493-63.29-0.739
				C411.528,335.104,440.74,335.505,460.696,333.522z"/>
			
				<radialGradient id="SVGID_82_" cx="545.4933" cy="332.4402" r="37.0562" gradientTransform="matrix(-1 0 0 1 981.1797 0)" gradientUnits="userSpaceOnUse">
				<stop  offset="0" style="stop-color:#FFFFFF"/>
				<stop  offset="0.41" style="stop-color:#FFFFFF"/>
				<stop  offset="1" style="stop-color:#5E5F5F"/>
			</radialGradient>
			<path fill-rule="evenodd" clip-rule="evenodd" fill="url(#SVGID_82_)" d="M461.317,336.755
				c-22.47,0.82-47.621,0.577-63.441-0.623c-0.123-1.115-0.242-2.23-0.357-3.345c10.258,1.147,33.712,1.132,63.437,0.624
				C461.072,334.526,461.192,335.641,461.317,336.755z"/>
			<path display="none" fill-rule="evenodd" clip-rule="evenodd" fill="#B27878" d="M384.784,259.831
				c29.829-0.226,59.658-0.453,89.487-0.679c0.018-0.386,0.037-0.772,0.056-1.157c-29.828,0.226-59.656,0.453-89.484,0.679
				C384.822,259.06,384.803,259.445,384.784,259.831z"/>
			<path display="none" fill-rule="evenodd" clip-rule="evenodd" fill="#B27878" d="M384.567,274.125
				c29.82-0.174,59.639-0.348,89.459-0.521c0.01-0.386,0.019-0.772,0.03-1.158c-29.821,0.174-59.643,0.348-89.464,0.521
				C384.583,273.352,384.574,273.738,384.567,274.125z"/>
			<path display="none" fill-rule="evenodd" clip-rule="evenodd" fill="#B27878" d="M473.829,286.951
				c0.002-0.386,0.004-0.773,0.006-1.159c-29.816-0.05-59.632-0.1-89.448-0.15c-0.001,0.386-0.002,0.773-0.003,1.159
				C414.199,286.85,444.014,286.901,473.829,286.951z"/>
			<path display="none" fill-rule="evenodd" clip-rule="evenodd" fill="#B27878" d="M473.769,300.623
				c-0.009-0.386-0.017-0.772-0.025-1.158c-29.817-0.05-59.635-0.1-89.452-0.151c0.009,0.386,0.019,0.772,0.029,1.158
				C414.137,300.522,443.953,300.573,473.769,300.623z"/>
			<path display="none" fill-rule="evenodd" clip-rule="evenodd" fill="#FFFFFF" d="M384.81,259.303
				c29.829-0.225,59.658-0.45,89.487-0.675c0.004-0.096,0.009-0.193,0.013-0.289c-29.828,0.225-59.656,0.45-89.484,0.675
				C384.821,259.11,384.815,259.206,384.81,259.303z"/>
			<path display="none" fill-rule="evenodd" clip-rule="evenodd" fill="#FFFFFF" d="M384.577,273.595
				c29.821-0.174,59.642-0.347,89.463-0.521c0.002-0.097,0.003-0.193,0.005-0.29c-29.82,0.174-59.64,0.347-89.46,0.521
				C384.583,273.402,384.58,273.499,384.577,273.595z"/>
			<path display="none" fill-rule="evenodd" clip-rule="evenodd" fill="#FFFFFF" d="M473.83,286.421
				c0.001-0.095,0.003-0.19,0.004-0.286c-29.816-0.05-59.632-0.101-89.448-0.151c0,0.097-0.001,0.193-0.001,0.29
				C414.2,286.324,444.015,286.373,473.83,286.421z"/>
			<path display="none" fill-rule="evenodd" clip-rule="evenodd" fill="#FFFFFF" d="M473.756,300.094
				c-0.001-0.097-0.002-0.193-0.003-0.29c-29.817-0.05-59.635-0.1-89.452-0.151c0.002,0.096,0.005,0.193,0.007,0.29
				C414.123,299.993,443.939,300.044,473.756,300.094z"/>
		</g>
	</g>
</g>
<g>
	<g>
		<path fill="#676767" d="M242.709,310.5c-36.639,3.52-55.926-34.682-55.268-40.111c-1.12,5.663,16.072,50.22,60.313,42.809
			c17.33-2.903,24.535-10.803,25.814-23.537C270.8,301.394,259.803,308.857,242.709,310.5z"/>
		<path fill="#706F6D" d="M279.495,276.793c1.757-1.131,3.514-2.295,5.466-4.797c-0.004-0.058-0.007-0.108-0.011-0.163
			C282.902,274.297,281.206,275.53,279.495,276.793z"/>
	</g>
	
		<radialGradient id="SVGID_83_" cx="646.6659" cy="268.876" r="27.3975" gradientTransform="matrix(-1.2513 0 0 1.1503 1050.5422 -0.5737)" gradientUnits="userSpaceOnUse">
		<stop  offset="0" style="stop-color:#7C1315"/>
		<stop  offset="1" style="stop-color:#100809"/>
	</radialGradient>
	<path fill="url(#SVGID_83_)" d="M186.671,272.082c1.185-1.718,3.179-3.839,3.927-3.208c0.747,0.63-0.125,1.719-0.312,2.349
		c-0.187,0.63,0.574,1.454,0.574,1.454c0.374,0.516,1.233,1.231,1.233,1.231c5.733,4.44,21.457,14.398,45.557,12.807
		c24.762-1.635,34.755-8.76,47.105-17.671c0.085,1.061,0.041,1.589,0.123,2.649c-3.809,2.551-7.793,4.607-11.86,9.282
		c-0.121,4.463,0.596,18.962-18.285,24.897c-34.784,10.935-61.115-16.459-64.768-30.5c-0.018-0.046-0.037-0.092-0.053-0.139
		c-0.562-1.661-1.246-1.718-1.621-1.203c-0.374,0.516-1.122,2.12-1.745,3.38c-0.625,1.26-1.684,1.031-1.684-0.172
		C184.864,276.035,185.488,273.801,186.671,272.082z"/>
	<path fill="#FFFFFF" d="M267.787,281.409l-1.574,4.53c0,0-9.553,9.409-28.659,8.219c-19.105-1.19-35.62-12.204-35.62-12.204
		s15.139,8.177,38.756,6.239C257.574,286.807,267.787,281.409,267.787,281.409z"/>
</g>
<g>
	<g>
		<radialGradient id="SVGID_84_" cx="257.6062" cy="117.398" r="22.1803" gradientUnits="userSpaceOnUse">
			<stop  offset="0" style="stop-color:#FFFFFF"/>
			<stop  offset="0.46" style="stop-color:#E3E3E3"/>
			<stop  offset="0.75" style="stop-color:#B4B1AE"/>
			<stop  offset="1" style="stop-color:#676767"/>
		</radialGradient>
		<path fill="url(#SVGID_84_)" d="M266.33,97.503c9.693,7.639,14.011,20.907,9.826,32.557c-3.817,9.846-14.864,14.327-24.397,9.312
			c-11.457-6.527-16.645-20.512-13.294-33.003C241.892,93.618,256.027,89.387,266.33,97.503z"/>
		<path fill="#010101" d="M263.899,96.183c9.484,7.604,13.292,20.73,9.178,32.11c-3.652,9.561-14.261,14.528-23.697,9.602
			c-11.23-6.458-15.829-20.352-12.501-32.489C240.159,93.125,253.679,88.093,263.899,96.183z"/>
		
			<radialGradient id="SVGID_85_" cx="-1214.047" cy="230.0294" r="31.738" gradientTransform="matrix(0.4051 -0.9352 0.8782 0.4584 540.8225 -1131.3964)" gradientUnits="userSpaceOnUse">
			<stop  offset="0.5062" style="stop-color:#FFFFFF"/>
			<stop  offset="0.7641" style="stop-color:#B2B4CC"/>
			<stop  offset="1" style="stop-color:#FFFFFF"/>
		</radialGradient>
		<path fill="url(#SVGID_85_)" d="M265.078,97.073c8.975,7.213,12.49,19.663,8.595,30.421c-3.826,9.698-13.529,13.779-22.436,9.05
			c-10.547-6.186-14.757-19.333-11.564-30.761C242.803,94.304,255.457,89.466,265.078,97.073z"/>
		<path fill="#010101" d="M263.663,126.588c1.5,1.896,1.741,4.712,0.569,6.321c-1.162,1.585-3.304,1.425-4.808-0.388
			c-1.535-1.833-1.862-4.704-0.693-6.375C259.916,124.456,262.137,124.667,263.663,126.588z"/>
	</g>
	<g>
		<radialGradient id="SVGID_86_" cx="211.8734" cy="116.3227" r="25.5707" gradientUnits="userSpaceOnUse">
			<stop  offset="0" style="stop-color:#FFFFFF"/>
			<stop  offset="0.46" style="stop-color:#E3E3E3"/>
			<stop  offset="0.75" style="stop-color:#B4B1AE"/>
			<stop  offset="1" style="stop-color:#676767"/>
		</radialGradient>
		<path fill="url(#SVGID_86_)" d="M224.272,94.439c10.235,9.768,13.601,25.918,7.256,38.621
			c-5.601,10.826-18.843,14.747-29.197,7.804c-12.301-8.649-16.391-25.726-10.996-39.362
			C196.784,87.369,213.349,83.923,224.272,94.439z"/>
		<path fill="#010101" d="M221.643,92.648c10.008,9.685,12.763,25.622,6.557,38.005c-5.37,10.512-18.148,15.051-28.406,8.232
			c-12.07-8.529-15.426-25.432-10.141-38.659C194.893,86.659,210.827,82.143,221.643,92.648z"/>
		
			<radialGradient id="SVGID_87_" cx="-1265.281" cy="200.2191" r="36.5932" gradientTransform="matrix(0.5181 -0.8781 0.8153 0.5622 697.7398 -1117.2847)" gradientUnits="userSpaceOnUse">
			<stop  offset="0.5062" style="stop-color:#FFFFFF"/>
			<stop  offset="0.7641" style="stop-color:#B2B4CC"/>
			<stop  offset="1" style="stop-color:#FFFFFF"/>
		</radialGradient>
		<path fill="url(#SVGID_87_)" d="M222.885,93.805c9.477,9.191,11.972,24.283,6.1,35.998c-5.082,9.958-17.207,14.31-26.896,7.75
			c-11.324-8.145-14.371-24.14-9.306-36.589C197.753,88.279,212.707,83.92,222.885,93.805z"/>
		<path fill="#010101" d="M224.842,120.903c1.479,2.348,1.401,5.618-0.143,7.33c-1.534,1.688-3.962,1.253-5.454-1.001
			c-1.528-2.283-1.545-5.616,0.004-7.401C220.812,118.025,223.332,118.519,224.842,120.903z"/>
	</g>
</g>
<g>
	<g>
		
			<radialGradient id="SVGID_88_" cx="395.3911" cy="275.9973" r="18.2654" gradientTransform="matrix(-1 0 0 1 805.9815 0)" gradientUnits="userSpaceOnUse">
			<stop  offset="0" style="stop-color:#FFFFFF"/>
			<stop  offset="0.46" style="stop-color:#E3E3E3"/>
			<stop  offset="0.75" style="stop-color:#B4B1AE"/>
			<stop  offset="1" style="stop-color:#676767"/>
		</radialGradient>
		<path fill="url(#SVGID_88_)" d="M403.406,259.614c-7.982,6.29-11.538,17.217-8.092,26.811c3.144,8.108,12.241,11.798,20.091,7.668
			c9.435-5.375,13.707-16.891,10.948-27.178C423.531,256.414,411.891,252.93,403.406,259.614z"/>
		<path fill="#010101" d="M405.409,258.527c-7.81,6.261-10.946,17.071-7.558,26.442c3.008,7.873,11.744,11.964,19.515,7.908
			c9.248-5.319,13.035-16.759,10.294-26.754C424.958,256.009,413.824,251.864,405.409,258.527z"/>
		
			<radialGradient id="SVGID_89_" cx="-1290.3381" cy="423.4389" r="26.1361" gradientTransform="matrix(-0.4051 -0.9352 -0.8782 0.4584 265.159 -1131.3964)" gradientUnits="userSpaceOnUse">
			<stop  offset="0.5062" style="stop-color:#FFFFFF"/>
			<stop  offset="0.7641" style="stop-color:#B2B4CC"/>
			<stop  offset="1" style="stop-color:#FFFFFF"/>
		</radialGradient>
		<path fill="url(#SVGID_89_)" d="M404.437,259.259c-7.391,5.94-10.286,16.193-7.078,25.052c3.151,7.987,11.141,11.347,18.476,7.452
			c8.685-5.094,12.152-15.921,9.523-25.332C422.781,256.979,412.36,252.995,404.437,259.259z"/>
		<path fill="#010101" d="M403.477,264.449c-1.056,1.336-1.226,3.319-0.401,4.451c0.818,1.117,2.327,1.004,3.386-0.273
			c1.081-1.291,1.312-3.313,0.488-4.49C406.116,262.948,404.551,263.097,403.477,264.449z"/>
	</g>
	<g>
		
			<radialGradient id="SVGID_90_" cx="360.5854" cy="278.1069" r="18.0084" gradientTransform="matrix(-1 0 0 1 805.9815 0)" gradientUnits="userSpaceOnUse">
			<stop  offset="0" style="stop-color:#FFFFFF"/>
			<stop  offset="0.46" style="stop-color:#E3E3E3"/>
			<stop  offset="0.75" style="stop-color:#B4B1AE"/>
			<stop  offset="1" style="stop-color:#676767"/>
		</radialGradient>
		<path fill="url(#SVGID_90_)" d="M436.664,262.695c-7.208,6.88-9.578,18.253-5.11,27.199c3.944,7.624,13.27,10.386,20.562,5.496
			c8.663-6.091,11.543-18.118,7.744-27.721C456.023,257.716,444.357,255.289,436.664,262.695z"/>
		<path fill="#010101" d="M438.516,261.434c-7.048,6.82-8.988,18.045-4.618,26.765c3.782,7.403,12.781,10.6,20.005,5.798
			c8.501-6.007,10.864-17.911,7.142-27.226C457.355,257.216,446.133,254.036,438.516,261.434z"/>
		
			<radialGradient id="SVGID_91_" cx="-1314.5646" cy="416.2739" r="25.7711" gradientTransform="matrix(-0.5181 -0.8781 -0.8153 0.5622 108.2417 -1117.2847)" gradientUnits="userSpaceOnUse">
			<stop  offset="0.5062" style="stop-color:#FFFFFF"/>
			<stop  offset="0.7641" style="stop-color:#B2B4CC"/>
			<stop  offset="1" style="stop-color:#FFFFFF"/>
		</radialGradient>
		<path fill="url(#SVGID_91_)" d="M437.641,262.249c-6.674,6.473-8.431,17.102-4.296,25.352c3.579,7.013,12.118,10.078,18.942,5.458
			c7.975-5.736,10.121-17.001,6.554-25.768C455.34,258.357,444.809,255.287,437.641,262.249z"/>
		<path fill="#010101" d="M435.571,268.304c-1.042,1.654-0.987,3.956,0.1,5.162c1.08,1.189,2.79,0.883,3.841-0.705
			c1.076-1.608,1.088-3.955-0.003-5.212C438.41,266.277,436.635,266.625,435.571,268.304z"/>
	</g>
</g>
</svg>
